<svg xmlns="http://www.w3.org/2000/svg" viewBox="0 0 1024 1024">
  <path fill="rgba(255,10,0,0.94)"
    d="M7.2 513a504.77 504.77 0 011009.54 0A504.77 504.77 0 017.2 513zm27.26 0a477.51 477.51 0 00955.02 0 477.51 477.51 0 00-955.02 0zm7.16 0a470.35 470.35 0 01940.7 0 470.35 470.35 0 01-940.7 0zm7.06 0a463.29 463.29 0 00926.58 0 463.29 463.29 0 00-926.58 0zm134.12 0a328.94 328.94 0 01657.87 0 328.94 328.94 0 01-657.87 0zm13.13 0a315.78 315.78 0 00631.56 0 315.78 315.78 0 00-631.56 0zm6.31 0a309.46 309.46 0 01618.93 0 309.46 309.46 0 01-618.93 0zm6.18 0a303.27 303.27 0 00606.55 0 303.27 303.27 0 00-606.55 0zm-13.93-194.13c24.38-8.06 33.03-32.82-1.78-18.75s-48.38-16.89-42.5-37.36 27.04-34.19 48.27-8.57l-12.91 16.93c-19.82-20.3-21.87 10.01-2.91 6.4s33.91-17.65 51.72 6.5-22.68 53.41-32.16 52.27zm36.95-149.31c41.04-36.72 92.88 58.32 59.4 84.24s-91.8-48.6-59.4-84.24zm16.2 12.96c-10.8 9.72 19.44 57.24 30.24 49.68s-22.68-56.16-30.24-49.68zm59.4-60.48l22.68-9.72 23.76 64.8 34.56-14.04 9.72 23.76-55.08 27zm95.04-35.64l23.76-4.32 19.44 48.6 8.64-55.08 23.76 4.32-16.2 95.04-23.76 2.16zm131.76-11.88l64.8 4.32-5.4 23.76h-39.96l-2.16 9.72 32.4 3.24-3.24 20.52h-32.4l-2.16 10.8 39.96 3.24-3.24 24.84-65.88-4.32zm117.72 25.92c44.28 5.4 56.16 14.04 47.52 49.68s-41.04 56.16-89.64 34.56zm-9.72 70.2c10.8 2.16 20.52 2.16 29.16-17.28s10.8-20.52-6.48-28.08zM362.6 903.13c15.2 20.69 41.42 21.27 17.29-7.49s1.11-51.23 22.39-51.96 40.87 15.15 23.07 43.26l-20.09-7.05c13.18-25.12-16.28-17.71-6.99-.79s27.27 26.79 9.8 51.2-57.8-5.07-59.65-14.43zm127.38-46.82c55.07.17 30 105.49-12.22 102.35s-35.7-97.54 12.22-102.35zm3.37 20.47c-14.53 0-23.86 55.55-10.77 57.15s20.72-56.91 10.77-57.15zm52.85-17.13l24.36-3.94 7.38 68.62 36.93-5.26 3.68 25.41-59.98 12.87zm69.26-10.96l22.18-9.55 29.87 42.98-3.97-55.61 24.12-1.14 5.59 96.25-22.66 7.45zm88.55-38.5l48.88-42.77 12.98 20.62-28.26 28.26 5.35 8.4 25.2-20.62 12.22 16.8-22.91 22.91 6.11 9.16 30.55-25.97 15.27 19.86-49.64 43.53zm70.83-52.73c15.95-41.66 27.21-51.1 59.7-34.09s44.56 53.41 11.85 95.34zm65.76 26.41c4.71-9.96 7.06-19.39-9.71-32.47s-17.3-15.44-28.81-.51zM393.44 436.32q57.24 60.48 108 123.12 31.32-165.24 93.96-292.68 69.12 54 116.64 77.76Q598.64 505.44 546.8 734.4 378.32 576.72 286.52 564.84zm508.68-42.12l12.96 18.36h23.76l-11.88 18.36 8.64 23.76-21.6-8.64-20.52 16.2v-22.68l-19.44-14.04 20.52-7.56zM109.4 567l12.96 18.36h23.76l-11.88 18.36 8.64 23.76-21.6-8.64-20.52 16.2v-22.68l-19.44-14.04 20.52-7.56z" />
</svg>
