<svg xmlns="http://www.w3.org/2000/svg" viewBox="0 0 1024 1024">
  <path fill="#6b8e23"
    d="M100 540l745-271 80 216-747 272zm29 13l63 175 703-257-63-174zm107 83c18 21 59-22 1-10s-60-47-34-64 64-22 77 9l-33 12c-15-22-47 19-2 9s63 16 55 46-82 53-98 10zm98-123c79-34 122 84 45 112s-114-82-45-112zm10 26c-24 12 0 74 27 59s4-74-27-59zm66-51l36-13 28 80 46-17 11 28-81 31zm76-27l35-13 43 64-6-77 34-13 3 121-35 13zm117-43l87-31 9 25-52 19 5 14 44-15 9 24-44 17 6 15 54-18 10 25-88 33zm105-38c62-25 99-39 119 12s2 70-79 96zm63 68c36-8 26-29 21-43s-13-23-40-9z" />
</svg>
