<svg width="540" height="720" xmlns="http://www.w3.org/2000/svg">
  <style>
    .club,.spade{fill:#000;stroke:#ff8c00}.diamond,.heart{fill:#dc143c;stroke:#a02020}.rank,.suit{transform:translate(8px,10px) scale(.15);stroke-width:2px}.suit{transform:translate(8px,22px) scale(.35)}.bottom{transform:rotate(180deg) translate(-60px,-80px)}.center-ace{transform:translate(30px,40px) scale(1.5);stroke-width:.5px}.center-jack{transform:translate(30px,40px) scale(.5);stroke-width:1px}.center-three,.center-two{stroke-width:2px}.center-two{transform:translate(30px,20px) scale(.4)}.center-three{transform:translate(30px,40px) scale(.4)}.center-six-left{transform:translate(21.5px,40px) scale(.4);stroke-width:2px}.center-six-right{transform:translate(38.5px,40px) scale(.4);stroke-width:2px}.center-seven,.center-ten{transform:translate(30px,30px) scale(.4);stroke-width:2px}.center-ten{transform:translate(30px,26.5px) scale(.4)}.four-left,.four-right{transform:translate(21.5px,20px) scale(.4);stroke-width:2px}.four-right{transform:translate(38.5px,20px) scale(.4)}.eight-left,.eight-right{transform:translate(21.5px,33px) scale(.4);stroke-width:2px}.eight-right{transform:translate(38.5px,33px) scale(.4)}
  </style>
  <defs>
    <g id="ranks">
      <path d="M-10.2 22.8l2.2-.4q1 0 1 1.1 0 3.5-1.4 5.9-1.4 2.4-3.5 3.4-3.4 1.7-5.8 1.7-4.6 0-6.9-3.4-2.3-3.5-2.3-10.4t3.8-18.1h-5.8q-1.1 0-1.1-1.1t1.7-3.5q1.7-2.5 3.6-2.5h4.5q7.1-15.8 16.7-27.3 2.5-3 6.2-5.6Q6.3-40 8.3-40q2 0 3 1.8 2.6 4.2 6.1 30.7 1.2 11.4 4.2 23.6T27 30.2q.6.4.6 1 0 1.5-4.2 2.8-4.3 1.3-6.5 1.3t-3.5-.5q-1.2-.6-1.5-1.2-1.8-3.9-3.6-18.6l-.6-4.7q-.4-4.7-.8-7.1l-.7-.5-20.9-.1q-1.2 5.1-1.2 8.9 0 3.8.3 5.6t1.6 3.7q1.4 2 3.8 2zm-2.5-27.3h.1q13.9 0 16 .1 2 0 2.2-.2.2-.2.3-.5-1.7-12.3-2.7-16.7-1-4.5-2-4.5t-2.5 2q-7.9 9.9-11.4 19.8z" id="rankA"/>
      <path d="M5.9 34.1l-15.9-.9q-5.7 0-9.3 1.6-.7.3-1.2.3-1.3 0-1.3-3.3t1.9-8q1.9-4.7 4.6-8.7 5.7-8.7 9.9-13.2l1.9-2Q2-6 5.3-11.7q3.4-5.7 3.4-12.4 0-6.3-4.9-8-1.1-.4-3.1-.4a9.4 9.4 0 00-.3 0 8.7 8.7 0 00-3.5.7q-1.8.8-2.7 2-1.7 2.5-1.8 4.6-.2 3.6 1.6 4.8l.5.4q2.1.9 2.1 2.7v.1q0 2.7-1.6 4.3-1.6 1.5-3.2 1.7l-1.7.2q-3 0-5.1-1.1t-2.8-2.8q-1.5-3-1.5-6 0-8.5 6.4-13.3Q-6.4-39 1.9-39t14 4.3q5.7 4.3 5.7 12 0 10.4-8.9 18.3l-2 1.7Q-2.7 8.7-6.9 15.9q-1.5 2.5-1.5 4.2 0 1.1 1.9 1.4t7.6.2q14.1 0 18.3-4.6.5-.3 1-.3 1.2 0 1.2 3.4t-1.4 7.3q-1.4 3.8-4.1 5.4-1.9 1.2-10.2 1.2z" id="rank2"/>
      <path d="M-11.3-3.2h-.2q-.7 0-.7-.5v-.2q.3-6.4 3.6-6.4h2q3.6 0 6.3-1.2t4-2.8q1.4-1.7 2.2-4 1.2-3.3 1.2-6.3t-.9-4.9q-.9-1.8-2.3-2.5-2.2-1.1-5-1.1T-6.2-31q-2.3 2.1-2.3 5.6 0 1.5.6 3t.6 1.8q0 1.5-1.7 2.3t-3.9.7q-2.3 0-4-1.5-1.7-1.5-2-2.9-.4-1.5-.4-3 0-4.9 3.4-8.2Q-9.8-39 1.3-39q2.3 0 5.8.9t5.7 2.2q2.3 1.3 4.2 4.3 1.9 3 1.9 6.9 0 3.8-1.2 6.8-1.3 2.9-3.1 4.6-3.8 3.5-6.7 4.2l-1.2.4q-.6.4-.6.8t.7.4q.6.1 1.6.4.9.2 3.4 1.5t4.4 3.1q1.9 1.9 3.5 5.6 1.5 3.6 1.5 9.2 0 5.5-2.4 10.2-2.4 4.6-5.9 6.7Q5.8 33.6.3 33.8l-2.4.1q-9.5 0-14.7-3.9-5.2-4-5.2-10.5 0-5 2.8-8.9 2.7-3.9 7.3-3.9 2.5 0 4.6 1.1t2 3.2q0 1.1-.9 1.5-1.5.9-2.3 2.6-.8 1.6-.9 2.8l-.1 1.2q0 3.6 2 5.9 2 2.2 5.2 2.2 10.4 0 10.4-17.1Q8.1 3 3.7-.2-.7-3.4-7.8-3.4H-9l-2.3.2z" id="rank3"/>
      <path d="M2.8 15l-8.6-.1-18 .2q-2.2 0-2.2-2l.2-1.1q6.4-15.8 21.5-35.9 4.8-6.5 8.9-11l1.3-1.3q2.6-2.7 7.7-2.7 2.7 0 2.7 1.6-1.6 14.1-1.6 28.7V4.1q1.3-.1 2.8-.2l2.3-.2h.9a.6.6 0 01.8.5q0 1.7-1.7 5.5t-3.5 4.6l-1.4.3q.2 11.3 1 15.2 0 2.6-3.9 3.8-4 1.2-7.5 1.2T.9 33.2q0-.2.6-4T2.8 15zM-11.9 4.6l8.3.2q4.4 0 6.9-.1.3-8.2.3-14.4l-.1-9.8q0-1.3-.7-1.3l-1.2.6q-3.1 3.4-6.5 8.9-3.5 5.5-5.4 9.4l-1.9 3.8q-.4.9-.4 1.8t.7.9z" id="rank4"/>
      <path d="M12.1-26.9l-9.9-.7q-9.3 0-9.7 2.5-1.4 6.6-1.6 11.7 0 1 .7 1 .2 0 .6-.2 3.6-1.9 8.3-1.9 4.7 0 8.5 1.4 3.7 1.4 5.8 3.8 2.1 2.4 3.6 4.9 1.4 2.4 2 5.4.8 4.8.8 8 0 10.6-5.7 17.7-5.8 7-16.4 7h-.3q-9.3 0-15-3.6T-22 19.2q0-3.5 1.1-6.1 1-2.6 2.5-3.8 3.1-2.5 5.6-2.7l1-.1q2.3 0 4.4 1.1 2.1 1 2.1 3.1 0 .8-1.1 1.7-1.1.8-1.9 2.5-.8 1.6-.9 2.7l-.2 1.2q0 2.7.9 4.6.9 1.8 2.3 2.4 2.3 1.1 3.9 1.1 3.5 0 5.9-2.3 2.3-2.4 3.2-6Q8.1 13 8.1 9.9q0-17.1-9.6-17.1-5.9 0-9.5 5.4-.5 1.7-4.3 1.7t-3.8-1.6v-.4q2.2-12.9 3.6-34.8.3-.9 1.4-1.1 4.1-.2 9.2-.2l11.5.2q9.2 0 11.1-.8.4-.2.9-.2 1 0 1 1 0 2.8-2.3 7t-5.2 4.1z" id="rank5"/>
      <path d="M.5 34.2q-5.8 0-10-1.8-4.3-1.8-6.6-4.5-2.4-2.8-3.7-7Q-22 14.1-22 5.8q0-8.4.6-13.8t2.3-11.3q1.7-5.9 4.5-10.1 2.7-4.2 7.5-6.9T4-39q4 0 9.4 1.8 3.2 1.1 5.3 4 2.1 2.9 2.1 7.2 0 2.8-1.2 4.7-2.3 3.7-6.2 3.7-2.2 0-4-1.4-1.9-1.4-1.9-2.7t.9-2.7q.9-1.3.9-3 0-5.6-6.5-5.6-.5 0-1.2.1t-2.8 1.5q-2 1.3-3.5 3.7t-2.7 7.5Q-8.7-15-8.7-7.8q.1.8.6.8.1 0 .5-.2 1.2-1.4 4.7-2.7t7.3-1.4q3.8 0 7 1.3t5 3.5q1.7 2.2 2.9 4.5Q20.5.2 21 2.7q.7 4.3.7 6 0 10.7-5.5 18.1-5.6 7.4-15.7 7.4zM7.9 3.4Q7.1.2 5.1-1.8 3.1-3.9.2-3.9t-5 2.1q-2 2-2.8 5.1-1.1 4.9-1.1 8.4t.6 6.8q.6 3.2 2.7 6.1 2.1 2.9 5.1 2.9 3 0 4.9-1.7 1.8-1.8 2.7-4.5Q9 16.2 9 13.2t-.2-4.8q-.2-1.9-.9-5z" id="rank6"/>
      <path d="M-6.9-37.9l15.2.5q5.2 0 8.5-.4l1.1-.2q1.7 0 1.7 3.8t-1.3 6.7Q.5 1 .5 25.2q0 4.7.7 6 .8 1.3.8 1.4 0 1.8-5.5 1.8-9.8 0-9.8-3.7 0-13.8 10.9-34.6t11-22.4q0-.8-.8-1-3.4-.2-6.1-.2t-5.9.6q-3.3.7-5.2 1.7-3.8 1.9-4.8 3.4l-.5.7q-.7 1.2-1.5 1.2-1.2 0-1.2-1.8 0-15 3.4-15.7 2-.5 7.1-.5z" id="rank7"/>
      <path d="M-12.1-5.1l1.4-.7q.6-.2.6-.6l-.5-.6q-10.6-4.4-10.6-14.8 0-8.2 6.1-12.7T-.7-39q3.6 0 7.2 1t5.9 2.3q2.3 1.4 4.1 4.3t1.7 7q0 4.2-2.6 8.3Q13-12 9-9.4q-.8.4-.8.7t.6.7q1.6.6 4.2 2.6 2.5 1.9 4.2 4 1.6 2 3 5.5t1.4 6.2q0 2.7-.2 4.5-.2 1.8-1.5 5.5t-3.6 6.5q-2.3 2.7-7.1 4.9t-11.4 2.2q-9.9 0-16.3-4.9-6.5-5-6.5-14 0-4.3 1.5-8 1.4-3.8 3.5-6.1 4.1-4.4 7.9-6zM9 13.9Q8.5 5.4 1.5.7q-3.2-2.2-3.9-2.2T-4-1q-.9.4-2.1 1.6-1.3 1.1-2.4 2.7-2.8 3.8-2.8 10.5 0 3.2 1 6.6 2.1 6.5 8.9 6.5 5.4 0 7.9-4.2T9 13.9zM2-13.3q2.5-1.7 3.6-5.1 1.1-3.4 1.1-5.7 0-2.3-.7-4.2-.8-2-1.9-2.8Q2-32.9-.7-33a13.6 13.6 0 00-.5 0 9.1 9.1 0 00-4.2.9q-2 1-2.8 2.6-1.3 2.6-1.3 5.1 0 4.4 4.3 8T1-12.9q.5 0 1-.4z" id="rank8"/>
      <path d="M-3.6 28.3h.1q12.1 0 12.1-27.1Q8.5.4 8 .4q-.1 0-.5.2Q6.3 2 2.8 3.4t-7.1 1.3q-8.1 0-12.8-5.4-4.7-5.5-4.7-13 0-13.6 7.7-20.4Q-8.3-39-1.7-39t10.8 1.7q4.3 1.7 6.8 4.4 2.4 2.6 3.8 6.8 2.2 6.7 2.2 17.7 0 42.7-25.5 42.7-4.3 0-9-1.4-9.3-2.8-9.3-11.9 0-9.1 8.2-9.1 2.1 0 3.8 1.5t1.6 2.9q0 1.5-1 3.2-1.1 1.7-1.1 2.7 0 6.1 6.8 6.1zm-4.8-38.7q.7 2.9 2.8 5.3 2.1 2.4 5.4 2.4 3.2 0 5.3-2.6 3.5-4.2 3.5-11.5 0-3.4-.9-7.4-2-8-8-8-2.9 0-4.9 2.1-2 2-2.7 5.1-1.2 4.8-1.2 8.2 0 3.4.7 6.4z" id="rank9"/>
      <path d="M29.9 28.9q-2.5 2.7-6.4 4.2-3.9 1.5-9.4 1.5-5.6 0-10.1-2.1-4.5-2.2-7-5.4-2.4-3.3-3.9-8.2t-1.9-9.3q-.4-4.4-.4-10.4 0-5.9.5-10.9t2-10.3 4-8.7q2.6-3.5 7-5.8t10-2.2q5.7 0 9.8 1.7t6.6 4.9q2.5 3.1 4.1 6.5 1.6 3.4 2.3 8 1.2 7.8 1.2 14 0 6.1-.3 10.1T36.8 15q-.9 4.4-2.7 7.8-1.7 3.3-4.2 6.1zM-18.2-9.2l.5 32.9q0 4.8-.1 6.1-.1 2.4-4 3.5t-6.9 1.2q-3 0-3-1.5a87.3 87.3 0 01.5-5.4q1.8-14.4 1.8-31.5l-.4-15.3q-.6-5.2-5.5-5.2l-2 .2q-1.7 0-1.7-1.1 0-2.5 8.4-8.1t11.7-5.6q1.6 0 1.6 2t-.4 10.7q-.5 8.6-.5 17.1zM25.1-2q0-29.9-10.6-29.9T4-2q0 29.8 10.6 29.8T25.1-2z" id="rankT"/>
      <path d="M-6.3 13.9l.2-20.2q0-23.7-2.3-26.8-1.1-1.4-1.1-1.9t1.4-1.3q1.3-.8 5.2-1.7 3.9-.9 6.9-.9 3 0 3 1.4l-.2 1.3Q5.6-25.4 5.6-15.1t.6 23q.6 12.7.6 18.7 0 8.1-6.2 14t-14.9 6.3q-1.7-.2-1.7-1.2 0-.7.5-1.1l1-1q.6-.6 2.2-3.1t2.8-5.6q1.2-3.2 2.2-8.8 1-5.6 1-12.2z" id="rankJ"/>
      <path d="M-17-21.7l.4-.6q1-4.6 3.3-7.9 2.2-3.4 4.5-5t5-2.6Q-.1-39 2.7-39q6.7 0 11.6 3.1 4.8 3.1 7.3 8.4 4.6 10.1 4.6 22.9 0 21.5-10.2 31.7 4.7 5.2 9.2 5.2 1.3 0 1.3.9 0 1.6-3.7 3.5t-7.9 1.8l-3.2-.3q-1.3-.2-2.1-.9t-1-2.1l-.7-2.8q-4.7 1.9-9.6 1.9-12.5 0-18.4-8.5Q-26 17.2-26 4.1q0-7.6 1.3-13.9t2.7-9l1.3-2.6q.4-.9 1.3-.9t1.4.2q.4.1.7.3.2.1.3.1zM.5 17.6l-.8-.7q-.3-.4-.3-.8 0-1.1 2-1.1 4.1 0 8.4 4.3 3.8-7.8 3.8-20.3 0-20.2-6.7-26.8Q4-30.6.7-30.6q-3.3 0-5.7 2.6-4.2 4.6-4.2 11.7 0 7 3.6 8.4.9.3.9 1.3 0 3-2 5.1T-11.6.9q-.9 0-.9.7-.1 1.1-.1 3.2t.2 4.5q.2 2.4 1 5.8.7 3.3 2 5.8 1.2 2.4 3.6 4.2t5.4 1.7q3.1 0 5.7-1.8Q3 19.8.5 17.6z" id="rankQ"/>
      <path d="M7.1 17v-4q0-10.5-3-15.2Q1.5-6.3-.6-6.8q-1.6-.5-1.7-.5l-1.1.5Q-5.8-4-7.2-1.4q-1.4 2.6-1.5 3.8l-.2 1.3q0 14.1 1.2 24.1.2 1.2.2 1.4 0 2.2-4.7 3.8-4.6 1.6-7.6 1.6-2.9 0-2.9-.9 0-.6.3-1.5 1-2.2 1.5-14.5.4-12.4.4-22.5t-.4-16.5q-.6-9.5-2-11.4-1.1-1.4-1.1-1.8 0-1.4 5.1-2.7 5.2-1.3 8.3-1.3 3.2 0 3.2 1.4l-.1 1.3Q-8.8-25-8.8-12.7q0 1 .4 1t1.1-.9q.6-.9 1.7-2.5t4.2-5.8q3.1-4.2 5.7-7.5t5.2-6.1q2.7-2.9 4.4-3.6 1.7-.7 6.9-.7t5.2 1.3q0 .5-1.1 1.1-1.1.6-3 1.9-1.9 1.3-8 7.1-6 5.8-12.1 13.6-.2.2-.2.6 0 .3.5.4.6.1 1.6.3 1 .2 3.6 1.6t4.8 3.4q2.1 2 4 6.3 2 4.2 2.3 8 .3 3.7.6 6.7t1.5 8.6q1.3 5.6 3 6.7.5.4.5 1 0 1.6-4.4 3t-7.9 1.3q-3.4 0-3.9-2.8-.5-3-.7-14.3z" id="rankK"/>
    </g>
    <g id="suits">
      <path id="suitD" transform="scale(0.5)"
        d="M0-30.6q3.4 6.2 10 15A212.2 212.2 0 0022.4 0a161.4 161.4 0 00-10.8 13.2Q4 23.2 0 30.4q-1.8-3.4-6.4-9.8-4.4-6.4-8-11Q-18 5-22.2 0a331.2 331.2 0 0012-15.2A134.4 134.4 0 000-30.6z"/>
      <path id="suitC" transform="scale(0.5)"
        d="M20.2 27.6l.2 1.6h-41l.4-1.6a47.8 47.8 0 009.4-2.8q3-1.2 5.2-4.2A22.8 22.8 0 00-1.8 14 21.8 21.8 0 00-.6 6.8V4.4a20.8 20.8 0 01-7.2 8.8q-4.4 2.8-8.8 2.8-3.6 0-6.8-1.8-3.2-1.8-4.8-5A13.8 13.8 0 01-30 2.4q0-5.6 3.6-9.4 3.6-4 8-4 3.2 0 8 2.6a48.2 48.2 0 01-2.6-5.2 12.8 12.8 0 01-.6-3.6q0-6 4-9.6t9.4-3.6q5.6 0 9.6 3.8 3.8 4 3.8 9.2 0 4.2-3.4 9 4.2-2 5-2.2 1-.4 3-.4 5 0 8.4 3.8a13 13 0 013.6 9.4A13.6 13.6 0 0126 12a12.6 12.6 0 01-9.6 4 14.6 14.6 0 01-5.6-1.2Q8 13.6 5.6 11.6A29 29 0 01.4 4.4a38.4 38.4 0 001.4 10A18 18 0 005.6 21a16.4 16.4 0 005.8 4.2 44.2 44.2 0 008.8 2.4z" />
      <path id="suitH" transform="scale(0.5)"
        d="M-14 2l-4.4-6q-3.8-5-5-8.2-1.4-3-1.4-6.2 0-5.4 3.4-8.6 3.4-3.4 8.4-3.4 4.2 0 7.6 2.8Q-1.8-24.8 0-19a16.8 16.8 0 015.2-8.6 12 12 0 017.8-3 11.6 11.6 0 018.2 3.4 10.8 10.8 0 013.4 8.2 21 21 0 01-2.2 8.8Q20.4-5.6 15 1A153.8 153.8 0 005 15a45.8 45.8 0 00-5 11.6 43.4 43.4 0 00-3.2-8.8A134.2 134.2 0 00-14 2z" />
      <path id="suitS" transform="scale(0.5)"
        d="M19 27.8l.4 1.8h-38.6l.2-1.8a20.6 20.6 0 0010.4-2.4q4.2-2.4 6.2-6.6Q-.2 14.6-.2 7.6V7q-4.4 9.2-12.8 9.2-4.2 0-7.4-3-3.2-3.2-3.2-7.8a13.6 13.6 0 012.2-7.6q2.2-3.4 7-7.4a61 61 0 0010-10.2A28 28 0 000-30.6a36.2 36.2 0 003.6 9 52.2 52.2 0 009.8 10.8q6.8 6.2 8.6 9.4 1.6 3.2 1.8 6.6a10.6 10.6 0 01-3.2 8q-3.2 3-7.4 3A14.2 14.2 0 01.6 7a29.8 29.8 0 002.2 11.8q1.8 4 5.8 6.2 4 2.4 10.4 2.8z" />
    </g>
    <g id="cards">
      <g id="background">
        <radialGradient id="bgCardGradient">
          <stop offset="0%" stop-color="#ffe"/>
          <stop offset="99%" stop-color="#f0f0d0"/>
        </radialGradient>
        <radialGradient id="bgCellGradient">
          <stop offset="0%" stop-color="#ddfefe"/>
          <stop offset="99%" stop-color="#00b0b0"/>
        </radialGradient>
        <radialGradient id="bgBaseGradient">
          <stop offset="0%" stop-color="#feddfe"/>
          <stop offset="99%" stop-color="#dd80dd"/>
        </radialGradient>
        <radialGradient id="bgPileGradient">
          <stop offset="0%" stop-color="#f0f0e0"/>
          <stop offset="99%" stop-color="#bba"/>
        </radialGradient>
        <g id="bgCard" stroke-width=".75" stroke="#ba7">
          <rect x="0" y="0" width="60" height="80" rx="5" fill="#985" fill-opacity="0.75" stroke="none" />
          <rect x="1" y="1" width="58" height="78" rx="5" fill="url(#bgCardGradient)"/>
          <path d="M30 10h18a3 3 180 100-6 2 2 180 100 4 1 1 180 100-2m2 34V12a3 3 180 016 0 2 2 180 11-4 0 1 1 180 012 0" id="bgLine" fill="none"/>
          <use href="#bgLine" transform="rotate(180 30 40)"/>
        </g>
        <rect x="1" y="1" width="58" height="78" rx="5" fill="url(#bgCellGradient)" stroke="#408080" id="bgCell"/>
        <rect x="1" y="1" width="58" height="78" rx="5" fill="url(#bgBaseGradient)" stroke="#804080" id="bgBase"/>
        <g id="bgPile">
          <rect x="1" y="1" width="58" height="78" rx="5" fill="url(#bgPileGradient)"/>
          <path d="M1 74V6a5 5 90 015-5h48a5 5 90 015 5v68" stroke="#606020" fill="none"/>
        </g>
      </g>
      <g id="cardAC">
        <use href="#bgCard"/>
        <use href="#suitC" class="center-ace"/>
        <g id="cardACTop">
          <use href="#rankA" class="rank"/>
          <use href="#suitC" class="suit"/>
        </g>
        <use href="#cardACTop" class="bottom"/>
      </g>
      <g id="cardAD">
        <use href="#bgCard"/>
        <use href="#suitD" class="center-ace"/>
        <g id="cardADTop">
          <use href="#rankA" class="rank"/>
          <use href="#suitD" class="suit"/>
        </g>
        <use href="#cardADTop" class="bottom"/>
      </g>
      <g id="cardAH">
        <use href="#bgCard"/>
        <use href="#suitH" class="center-ace"/>
        <g id="cardAHTop">
          <use href="#rankA" class="rank"/>
          <use href="#suitH" class="suit"/>
        </g>
        <use href="#cardAHTop" class="bottom"/>
      </g>
      <g id="cardAS">
        <use href="#bgCard"/>
        <use href="#suitS" class="center-ace"/>
        <g id="cardASTop">
          <use href="#rankA" class="rank"/>
          <use href="#suitS" class="suit"/>
        </g>
        <use href="#cardASTop" class="bottom"/>
      </g>
      <g id="card2C">
        <use href="#bgCard"/>
        <g id="card2CTop">
          <use href="#suitC" class="center-two"/>
          <use href="#rank2" class="rank"/>
          <use href="#suitC" class="suit"/>
        </g>
        <use href="#card2CTop" class="bottom"/>
      </g>
      <g id="card2D">
        <use href="#bgCard"/>
        <g id="card2DTop">
          <use href="#suitD" class="center-two"/>
          <use href="#rank2" class="rank"/>
          <use href="#suitD" class="suit"/>
        </g>
        <use href="#card2DTop" class="bottom"/>
      </g>
      <g id="card2S">
        <use href="#bgCard"/>
        <g id="card2STop">
          <use href="#suitS" class="center-two"/>
          <use href="#rank2" class="rank"/>
          <use href="#suitS" class="suit"/>
        </g>
        <use href="#card2STop" class="bottom"/>
      </g>
      <g id="card2H">
        <use href="#bgCard"/>
        <g id="card2HTop">
          <use href="#suitH" class="center-two"/>
          <use href="#rank2" class="rank"/>
          <use href="#suitH" class="suit"/>
        </g>
        <use href="#card2HTop" class="bottom"/>
      </g>
      <g id="card3C">
        <use href="#bgCard"/>
        <use href="#suitC" class="center-three"/>
        <g id="card3CTop">
          <use href="#suitC" class="center-two"/>
          <use href="#rank3" class="rank"/>
          <use href="#suitC" class="suit"/>
        </g>
        <use href="#card3CTop" class="bottom"/>
      </g>
      <g id="card3D">
        <use href="#bgCard"/>
        <use href="#suitD" class="center-three"/>
        <g id="card3DTop">
          <use href="#suitD" class="center-two"/>
          <use href="#rank3" class="rank"/>
          <use href="#suitD" class="suit"/>
        </g>
        <use href="#card3DTop" class="bottom"/>
      </g>
      <g id="card3S">
        <use href="#bgCard"/>
        <use href="#suitS" class="center-three"/>
        <g id="card3STop">
          <use href="#suitS" class="center-two"/>
          <use href="#rank3" class="rank"/>
          <use href="#suitS" class="suit"/>
        </g>
        <use href="#card3STop" class="bottom"/>
      </g>
      <g id="card3H">
        <use href="#bgCard"/>
        <use href="#suitH" class="center-three"/>
        <g id="card3HTop">
          <use href="#suitH" class="center-two"/>
          <use href="#rank3" class="rank"/>
          <use href="#suitH" class="suit"/>
        </g>
        <use href="#card3HTop" class="bottom"/>
      </g>
      <g id="card4C">
        <use href="#bgCard"/>
        <g id="card4CTop">
          <use href="#suitC" class="four-left"/>
          <use href="#suitC" class="four-right"/>
          <use href="#rank4" class="rank"/>
          <use href="#suitC" class="suit"/>
        </g>
        <use href="#card4CTop" class="bottom"/>
      </g>
      <g id="card4D">
        <use href="#bgCard"/>
        <g id="card4DTop">
          <use href="#suitD" class="four-left"/>
          <use href="#suitD" class="four-right"/>
          <use href="#rank4" class="rank"/>
          <use href="#suitD" class="suit"/>
        </g>
        <use href="#card4DTop" class="bottom"/>
      </g>
      <g id="card4S">
        <use href="#bgCard"/>
        <g id="card4STop">
          <use href="#suitS" class="four-left"/>
          <use href="#suitS" class="four-right"/>
          <use href="#rank4" class="rank"/>
          <use href="#suitS" class="suit"/>
        </g>
        <use href="#card4STop" class="bottom"/>
      </g>
      <g id="card4H">
        <use href="#bgCard"/>
        <g id="card4HTop">
          <use href="#suitH" class="four-left"/>
          <use href="#suitH" class="four-right"/>
          <use href="#rank4" class="rank"/>
          <use href="#suitH" class="suit"/>
        </g>
        <use href="#card4HTop" class="bottom"/>
      </g>
      <g id="card5C">
        <use href="#bgCard"/>
        <use href="#suitC" class="center-three"/>
        <g id="card5CTop">
          <use href="#suitC" class="four-left"/>
          <use href="#suitC" class="four-right"/>
          <use href="#rank5" class="rank"/>
          <use href="#suitC" class="suit"/>
        </g>
        <use href="#card5CTop" class="bottom"/>
      </g>
      <g id="card5D">
        <use href="#bgCard"/>
        <use href="#suitD" class="center-three"/>
        <g id="card5DTop">
          <use href="#suitD" class="four-left"/>
          <use href="#suitD" class="four-right"/>
          <use href="#rank5" class="rank"/>
          <use href="#suitD" class="suit"/>
        </g>
        <use href="#card5DTop" class="bottom"/>
      </g>
      <g id="card5S">
        <use href="#bgCard"/>
        <use href="#suitS" class="center-three"/>
        <g id="card5STop">
          <use href="#suitS" class="four-left"/>
          <use href="#suitS" class="four-right"/>
          <use href="#rank5" class="rank"/>
          <use href="#suitS" class="suit"/>
        </g>
        <use href="#card5STop" class="bottom"/>
      </g>
      <g id="card5H">
        <use href="#bgCard"/>
        <use href="#suitH" class="center-three"/>
        <g id="card5HTop">
          <use href="#suitH" class="four-left"/>
          <use href="#suitH" class="four-right"/>
          <use href="#rank5" class="rank"/>
          <use href="#suitH" class="suit"/>
        </g>
        <use href="#card5HTop" class="bottom"/>
      </g>
      <g id="card6C">
        <use href="#bgCard"/>
        <use href="#suitC" class="center-six-left"/>
        <use href="#suitC" class="center-six-right"/>
        <g id="card6CTop">
          <use href="#suitC" class="four-left"/>
          <use href="#suitC" class="four-right"/>
          <use href="#rank6" class="rank"/>
          <use href="#suitC" class="suit"/>
        </g>
        <use href="#card6CTop" class="bottom"/>
      </g>
      <g id="card6D">
        <use href="#bgCard"/>
        <use href="#suitD" class="center-six-left"/>
        <use href="#suitD" class="center-six-right"/>
        <g id="card6DTop">
          <use href="#suitD" class="four-left"/>
          <use href="#suitD" class="four-right"/>
          <use href="#rank6" class="rank"/>
          <use href="#suitD" class="suit"/>
        </g>
        <use href="#card6DTop" class="bottom"/>
      </g>
      <g id="card6S">
        <use href="#bgCard"/>
        <use href="#suitS" class="center-six-left"/>
        <use href="#suitS" class="center-six-right"/>
        <g id="card6STop">
          <use href="#suitS" class="four-left"/>
          <use href="#suitS" class="four-right"/>
          <use href="#rank6" class="rank"/>
          <use href="#suitS" class="suit"/>
        </g>
        <use href="#card6STop" class="bottom"/>
      </g>
      <g id="card6H">
        <use href="#bgCard"/>
        <use href="#suitH" class="center-six-left"/>
        <use href="#suitH" class="center-six-right"/>
        <g id="card6HTop">
          <use href="#suitH" class="four-left"/>
          <use href="#suitH" class="four-right"/>
          <use href="#rank6" class="rank"/>
          <use href="#suitH" class="suit"/>
        </g>
        <use href="#card6HTop" class="bottom"/>
      </g>
      <g id="card7C">
        <use href="#bgCard"/>
        <use href="#suitC" class="center-six-left"/>
        <use href="#suitC" class="center-six-right"/>
        <use href="#suitC" class="center-seven"/>
        <g id="card7CTop">
          <use href="#suitC" class="four-left"/>
          <use href="#suitC" class="four-right"/>
          <use href="#rank7" class="rank"/>
          <use href="#suitC" class="suit"/>
        </g>
        <use href="#card7CTop" class="bottom"/>
      </g>
      <g id="card7D">
        <use href="#bgCard"/>
        <use href="#suitD" class="center-six-left"/>
        <use href="#suitD" class="center-six-right"/>
        <use href="#suitD" class="center-seven"/>
        <g id="card7DTop">
          <use href="#suitD" class="four-left"/>
          <use href="#suitD" class="four-right"/>
          <use href="#rank7" class="rank"/>
          <use href="#suitD" class="suit"/>
        </g>
        <use href="#card7DTop" class="bottom"/>
      </g>
      <g id="card7S">
        <use href="#bgCard"/>
        <use href="#suitS" class="center-six-left"/>
        <use href="#suitS" class="center-six-right"/>
        <use href="#suitS" class="center-seven"/>
        <g id="card7STop">
          <use href="#suitS" class="four-left"/>
          <use href="#suitS" class="four-right"/>
          <use href="#rank7" class="rank"/>
          <use href="#suitS" class="suit"/>
        </g>
        <use href="#card7STop" class="bottom"/>
      </g>
      <g id="card7H">
        <use href="#bgCard"/>
        <use href="#suitH" class="center-six-left"/>
        <use href="#suitH" class="center-six-right"/>
        <use href="#suitH" class="center-seven"/>
        <g id="card7HTop">
          <use href="#suitH" class="four-left"/>
          <use href="#suitH" class="four-right"/>
          <use href="#rank7" class="rank"/>
          <use href="#suitH" class="suit"/>
        </g>
        <use href="#card7HTop" class="bottom"/>
      </g>
      <g id="card8C">
        <use href="#bgCard"/>
        <use href="#suitC" class="center-six-left"/>
        <use href="#suitC" class="center-six-right"/>
        <g id="card8CTop">
          <use href="#suitC" class="center-seven"/>
          <use href="#suitC" class="four-left"/>
          <use href="#suitC" class="four-right"/>
          <use href="#rank8" class="rank"/>
          <use href="#suitC" class="suit"/>
        </g>
        <use href="#card8CTop" class="bottom"/>
      </g>
      <g id="card8D">
        <use href="#bgCard"/>
        <use href="#suitD" class="center-six-left"/>
        <use href="#suitD" class="center-six-right"/>
        <g id="card8DTop">
          <use href="#suitD" class="center-seven"/>
          <use href="#suitD" class="four-left"/>
          <use href="#suitD" class="four-right"/>
          <use href="#rank8" class="rank"/>
          <use href="#suitD" class="suit"/>
        </g>
        <use href="#card8DTop" class="bottom"/>
      </g>
      <g id="card8S">
        <use href="#bgCard"/>
        <use href="#suitS" class="center-six-left"/>
        <use href="#suitS" class="center-six-right"/>
        <g id="card8STop">
          <use href="#suitS" class="center-seven"/>
          <use href="#suitS" class="four-left"/>
          <use href="#suitS" class="four-right"/>
          <use href="#rank8" class="rank"/>
          <use href="#suitS" class="suit"/>
        </g>
        <use href="#card8STop" class="bottom"/>
      </g>
      <g id="card8H">
        <use href="#bgCard"/>
        <use href="#suitH" class="center-six-left"/>
        <use href="#suitH" class="center-six-right"/>
        <g id="card8HTop">
          <use href="#suitH" class="center-seven"/>
          <use href="#suitH" class="four-left"/>
          <use href="#suitH" class="four-right"/>
          <use href="#rank8" class="rank"/>
          <use href="#suitH" class="suit"/>
        </g>
        <use href="#card8HTop" class="bottom"/>
      </g>
      <g id="card9C">
        <use href="#bgCard"/>
        <use href="#suitC" class="center-three"/>
        <g id="card9CTop">
          <use href="#suitC" class="four-left"/>
          <use href="#suitC" class="four-right"/>
          <use href="#suitC" class="eight-left"/>
          <use href="#suitC" class="eight-right"/>
          <use href="#rank9" class="rank"/>
          <use href="#suitC" class="suit"/>
        </g>
        <use href="#card9CTop" class="bottom"/>
      </g>
      <g id="card9D">
        <use href="#bgCard"/>
        <use href="#suitD" class="center-three"/>
        <g id="card9DTop">
          <use href="#suitD" class="four-left"/>
          <use href="#suitD" class="four-right"/>
          <use href="#suitD" class="eight-left"/>
          <use href="#suitD" class="eight-right"/>
          <use href="#rank9" class="rank"/>
          <use href="#suitD" class="suit"/>
        </g>
        <use href="#card9DTop" class="bottom"/>
      </g>
      <g id="card9S">
        <use href="#bgCard"/>
        <use href="#suitS" class="center-three"/>
        <g id="card9STop">
          <use href="#suitS" class="four-left"/>
          <use href="#suitS" class="four-right"/>
          <use href="#suitS" class="eight-left"/>
          <use href="#suitS" class="eight-right"/>
          <use href="#rank9" class="rank"/>
          <use href="#suitS" class="suit"/>
        </g>
        <use href="#card9STop" class="bottom"/>
      </g>
      <g id="card9H">
        <use href="#bgCard"/>
        <use href="#suitH" class="center-three"/>
        <g id="card9HTop">
          <use href="#suitH" class="four-left"/>
          <use href="#suitH" class="four-right"/>
          <use href="#suitH" class="eight-left"/>
          <use href="#suitH" class="eight-right"/>
          <use href="#rank9" class="rank"/>
          <use href="#suitH" class="suit"/>
        </g>
        <use href="#card9HTop" class="bottom"/>
      </g>
      <g id="cardTC">
        <use href="#bgCard"/>
        <g id="cardTCTop">
          <use href="#suitC" class="center-ten"/>
          <use href="#suitC" class="four-left"/>
          <use href="#suitC" class="four-right"/>
          <use href="#suitC" class="eight-left"/>
          <use href="#suitC" class="eight-right"/>
          <use href="#rankT" class="rank"/>
          <use href="#suitC" class="suit"/>
        </g>
        <use href="#cardTCTop" class="bottom"/>
      </g>
      <g id="cardTD">
        <use href="#bgCard"/>
        <g id="cardTDTop">
          <use href="#suitD" class="center-ten"/>
          <use href="#suitD" class="four-left"/>
          <use href="#suitD" class="four-right"/>
          <use href="#suitD" class="eight-left"/>
          <use href="#suitD" class="eight-right"/>
          <use href="#rankT" class="rank"/>
          <use href="#suitD" class="suit"/>
        </g>
        <use href="#cardTDTop" class="bottom"/>
      </g>
      <g id="cardTS">
        <use href="#bgCard"/>
        <g id="cardTSTop">
          <use href="#suitS" class="center-ten"/>
          <use href="#suitS" class="four-left"/>
          <use href="#suitS" class="four-right"/>
          <use href="#suitS" class="eight-left"/>
          <use href="#suitS" class="eight-right"/>
          <use href="#rankT" class="rank"/>
          <use href="#suitS" class="suit"/>
        </g>
        <use href="#cardTSTop" class="bottom"/>
      </g>
      <g id="cardTH">
        <use href="#bgCard"/>
        <g id="cardTHTop">
          <use href="#suitH" class="center-ten"/>
          <use href="#suitH" class="four-left"/>
          <use href="#suitH" class="four-right"/>
          <use href="#suitH" class="eight-left"/>
          <use href="#suitH" class="eight-right"/>
          <use href="#rankT" class="rank"/>
          <use href="#suitH" class="suit"/>
        </g>
        <use href="#cardTHTop" class="bottom"/>
      </g>
      <g id="cardJC">
        <use href="#bgCard"/>
        <use href="#rankJ" class="center-jack"/>
        <g id="cardJCTop">
          <use href="#rankJ" class="rank"/>
          <use href="#suitC" class="suit"/>
        </g>
        <use href="#cardJCTop" class="bottom"/>
      </g>
      <g id="cardJD">
        <use href="#bgCard"/>
        <use href="#rankJ" class="center-jack"/>
        <g id="cardJDTop">
          <use href="#rankJ" class="rank"/>
          <use href="#suitD" class="suit"/>
        </g>
        <use href="#cardJDTop" class="bottom"/>
      </g>
      <g id="cardJS">
        <use href="#bgCard"/>
        <use href="#rankJ" class="center-jack"/>
        <g id="cardJSTop">
          <use href="#rankJ" class="rank"/>
          <use href="#suitS" class="suit"/>
        </g>
        <use href="#cardJSTop" class="bottom"/>
      </g>
      <g id="cardJH">
        <use href="#bgCard"/>
        <use href="#rankJ" class="center-jack"/>
        <g id="cardJHTop">
          <use href="#rankJ" class="rank"/>
          <use href="#suitH" class="suit"/>
        </g>
        <use href="#cardJHTop" class="bottom"/>
      </g>
      <g id="cardQC">
        <use href="#bgCard"/>
        <use href="#rankQ" class="center-jack"/>
        <g id="cardQCTop">
          <use href="#rankQ" class="rank"/>
          <use href="#suitC" class="suit"/>
        </g>
        <use href="#cardQCTop" class="bottom"/>
      </g>
      <g id="cardQD">
        <use href="#bgCard"/>
        <use href="#rankQ" class="center-jack"/>
        <g id="cardQDTop">
          <use href="#rankQ" class="rank"/>
          <use href="#suitD" class="suit"/>
        </g>
        <use href="#cardQDTop" class="bottom"/>
      </g>
      <g id="cardQS">
        <use href="#bgCard"/>
        <use href="#rankQ" class="center-jack"/>
        <g id="cardQSTop">
          <use href="#rankQ" class="rank"/>
          <use href="#suitS" class="suit"/>
        </g>
        <use href="#cardQSTop" class="bottom"/>
      </g>
      <g id="cardQH">
        <use href="#bgCard"/>
        <use href="#rankQ" class="center-jack"/>
        <g id="cardQHTop">
          <use href="#rankQ" class="rank"/>
          <use href="#suitH" class="suit"/>
        </g>
        <use href="#cardQHTop" class="bottom"/>
      </g>
      <g id="cardKC">
        <use href="#bgCard"/>
        <use href="#rankK" class="center-jack"/>
        <g id="cardKCTop">
          <use href="#rankK" class="rank"/>
          <use href="#suitC" class="suit"/>
        </g>
        <use href="#cardKCTop" class="bottom"/>
      </g>
      <g id="cardKD">
        <use href="#bgCard"/>
        <use href="#rankK" class="center-jack"/>
        <g id="cardKDTop">
          <use href="#rankK" class="rank"/>
          <use href="#suitD" class="suit"/>
        </g>
        <use href="#cardKDTop" class="bottom"/>
      </g>
      <g id="cardKS">
        <use href="#bgCard"/>
        <use href="#rankK" class="center-jack"/>
        <g id="cardKSTop">
          <use href="#rankK" class="rank"/>
          <use href="#suitS" class="suit"/>
        </g>
        <use href="#cardKSTop" class="bottom"/>
      </g>
      <g id="cardKH">
        <use href="#bgCard"/>
        <use href="#rankK" class="center-jack"/>
        <g id="cardKHTop">
          <use href="#rankK" class="rank"/>
          <use href="#suitH" class="suit"/>
        </g>
        <use href="#cardKHTop" class="bottom"/>
      </g>
    </g>
  </defs>
  <g transform="translate(3.75 5)">
    <use class="card ace spade" href="#cardAS"/>
    <use class="card ace diamond" href="#cardAD" transform="translate(67.5)"/>
    <use class="card ace club" href="#cardAC" transform="translate(135)"/>
    <use class="card ace heart" href="#cardAH" transform="translate(202.5)"/>

    <use class="card two spade" href="#card2S" transform="translate(270)"/>
    <use class="card two diamond" href="#card2D" transform="translate(337.5)"/>
    <use class="card two club" href="#card2C" transform="translate(405)"/>
    <use class="card two heart" href="#card2H" transform="translate(472.5)"/>
  </g>

  <g transform="translate(3.75 95)">
    <use class="card three spade" href="#card3S" />
    <use class="card three diamond" href="#card3D" transform="translate(67.5)"/>
    <use class="card three club" href="#card3C" transform="translate(135)"/>
    <use class="card three heart" href="#card3H" transform="translate(202.5)"/>

    <use class="card four spade" href="#card4S" transform="translate(270)"/>
    <use class="card four diamond" href="#card4D" transform="translate(337.5)"/>
    <use class="card four club" href="#card4C" transform="translate(405)"/>
    <use class="card four heart" href="#card4H" transform="translate(472.5)"/>
  </g>

  <g transform="translate(3.75 185)">
    <use class="card five spade" href="#card5S" />
    <use class="card five diamond" href="#card5D" transform="translate(67.5)"/>
    <use class="card five club" href="#card5C"  transform="translate(135)"/>
    <use class="card five heart" href="#card5H" transform="translate(202.5)"/>

    <use class="card six spade" href="#card6S" transform="translate(270)"/>
    <use class="card six diamond" href="#card6D" transform="translate(337.5)"/>
    <use class="card six club" href="#card6C" transform="translate(405)"/>
    <use class="card six heart" href="#card6H" transform="translate(472.5)"/>
  </g>

  <g transform="translate(3.75 275)">
    <use class="card seven spade" href="#card7S" />
    <use class="card seven diamond" href="#card7D" transform="translate(67.5)"/>
    <use class="card seven club" href="#card7C" transform="translate(135)"/>
    <use class="card seven heart" href="#card7H" transform="translate(202.5)"/>

    <use class="card eight spade" href="#card8S" transform="translate(270)"/>
    <use class="card eight diamond" href="#card8D" transform="translate(337.5)"/>
    <use class="card eight club" href="#card8C" transform="translate(405)"/>
    <use class="card eight heart" href="#card8H" transform="translate(472.5)"/>
  </g>
  <g transform="translate(3.75 365)">
    <use class="card nine spade" href="#card9S" />
    <use class="card nine diamond" href="#card9D" transform="translate(67.5)"/>
    <use class="card nine club" href="#card9C" transform="translate(135)"/>
    <use class="card nine heart" href="#card9H" transform="translate(202.5)"/>

    <use class="card ten spade" href="#cardTS" transform="translate(270)"/>
    <use class="card ten diamond" href="#cardTD" transform="translate(337.5)"/>
    <use class="card ten club" href="#cardTC" transform="translate(405)"/>
    <use class="card ten heart" href="#cardTH" transform="translate(472.5)"/>
  </g>
  <g transform="translate(3.75 455)">
    <use class="card jack spade" href="#cardJS" />
    <use class="card jack diamond" href="#cardJD" transform="translate(67.5)"/>
    <use class="card jack club" href="#cardJC" transform="translate(135)"/>
    <use class="card jack heart" href="#cardJH" transform="translate(202.5)"/>

    <use class="card queen spade" href="#cardQS" transform="translate(270)"/>
    <use class="card queen diamond" href="#cardQD" transform="translate(337.5)"/>
    <use class="card queen club" href="#cardQC" transform="translate(405)"/>
    <use class="card queen heart" href="#cardQH" transform="translate(472.5)"/>
  </g>
  <g transform="translate(3.75 545)">
    <use class="card king spade" href="#cardKS" />
    <use class="card king diamond" href="#cardKD" transform="translate(67.5)"/>
    <use class="card king club" href="#cardKC" transform="translate(135)"/>
    <use class="card king heart" href="#cardKH" transform="translate(202.5)"/>

    <g transform="translate(270)">
      <use href="#bgBase"/>
      <use href="#suitS" class="spade center-ace"/>
    </g>
    <g transform="translate(337.5)" >
      <use href="#bgBase"/>
      <use href="#suitD" class="diamond center-ace"/>
    </g>
    <g transform="translate(405)">
      <use href="#bgBase"/>
      <use href="#suitC" class="club center-ace"/>
    </g>
    <g transform="translate(472.5)">
      <use href="#bgBase"/>
      <use href="#suitH" class="heart center-ace"/>
    </g>
  </g>

  <use class="spot cell" href="#bgCell" transform="translate(3.75 635)"/>
  <use class="spot pile" href="#bgPile" transform="translate(71.25 635)"/>
</svg>
