<svg xmlns="http://www.w3.org/2000/svg" viewBox="0 0 1024 1024">
  <path fill="rgba(103,58,183,0.9)"
    d="M109 843l3 14 18-4 7 35c-38 8-57 6-62-38zm33-106l-3-14-18 4-7-35c38-8 57-6 62 38zm5 113l17-4-9-44-18 3-7-34c36-10 55-9 63 39s16 64-39 75zm128-27l33-7-26-122-33 6-7-34c67-21 73-8 89 78s32 100-49 114zm-171-93l-17 4 9 44 18-3 7 34c-36 10-55 9-63-39s-16-64 39-75zm162 132c-38 3-43-16-57-90s-23-86 16-103zm87-183l-12 2-7-34 47-10 41 191-36 8zm78 111l62-13 8 35-63 13zm306-65l62-13 8 35-63 13zm-32-157l62-13 8 35-63 13zm16 75l53-10 7 34-53 11zm-224 28l-13-57 36-7 12 53 71 122-1 7-31 8zm75-75l35-7 13 55-14 111-29-53 6-54zm64-14l53-11 40 191-54 13-7-36 21-5-26-121-20 4zm156-34l53-11 40 191-54 13-7-36 21-5-26-121-20 4zm69-13c68-22 90 11 101 75s22 100-59 116l-8-35c39-3 48-16 33-71s-10-62-58-51z" />
</svg>
