<?xml version="1.0" encoding="UTF-8" standalone="no"?>
<svg xmlns:svg="http://www.w3.org/2000/svg" xmlns="http://www.w3.org/2000/svg" xmlns:xlink="http://www.w3.org/1999/xlink" viewBox="0 0 480 480" version="1.1">
  <style>
.stem {
  stroke-dasharray: 400;
  stroke-dashoffset: 400;
  animation: animation-stem 4s linear 1;
}
.petal {
  stroke-dasharray: 400;
  stroke-dashoffset: 400;
  animation: animation-petal 4s linear 1;
}

@keyframes animation-stem {
  0% {
    opacity: 0.2;
  }
  50% {
    stroke-dashoffset: 0;
    opacity: 0.9;
  }
  100% {
    stroke-dashoffset: 0;
    opacity: 0;
  }
}
@keyframes animation-petal {
  44% {
    stroke-dashoffset: 400;
    opacity: 0.6;
  }
  65% {
    stroke-dashoffset: 0;
    opacity: 0.9;
  }
  100% {
    stroke-dashoffset: -400;
    opacity: 0;
  }
}
  </style>
  <defs>
    <linearGradient id="b">
      <stop stop-color="#ffd73b" offset="0" id="stop5310"/>
      <stop stop-color="#ee8400" offset="1" id="stop5312"/>
    </linearGradient>
    <linearGradient id="c">
      <stop stop-color="#ff5959" offset="0" id="stop5315"/>
      <stop stop-color="#d90000" offset="1" id="stop5317"/>
    </linearGradient>
    <linearGradient id="a">
      <stop stop-color="#d700d7" offset="0" id="stop5320"/>
      <stop stop-color="#6e006e" offset="1" id="stop5322"/>
    </linearGradient>
    <linearGradient id="az" x1="60" x2="50" y1="580" y2="582" xlink:href="#a" gradientTransform="matrix(8.5250443,0,0,21.234768,-156.19105,-11964.788)" gradientUnits="userSpaceOnUse"/>
    <linearGradient id="bb" x1="22.174029" x2="21.003051" y1="1574.4667" y2="1565.7254" xlink:href="#a" gradientTransform="matrix(17.526917,0,0,7.2840073,-31.482575,-11339.182)" gradientUnits="userSpaceOnUse"/>
    <linearGradient id="ba" x1="27.033812" x2="24.886689" y1="1458.7127" y2="1448.1514" xlink:href="#a" gradientTransform="matrix(16.083792,0,0,7.9375675,-31.482575,-11339.182)" gradientUnits="userSpaceOnUse"/>
    <linearGradient id="s" x2="52.748" y1="588.78525" y2="589.79018" xlink:href="#a" gradientTransform="matrix(6.4650465,0,0,19.747142,-31.482575,-11339.182)" x1="44.532286" gradientUnits="userSpaceOnUse"/>
    <linearGradient id="g" x1="42.903615" x2="38.396741" y1="512.69498" y2="509.90211" xlink:href="#a" gradientTransform="matrix(5.5999979,0,0,22.797543,-31.482575,-11339.182)" gradientUnits="userSpaceOnUse"/>
    <linearGradient id="h" x1="11.453551" x2="10.12165" y1="1031.3747" y2="1022.1865" xlink:href="#a" gradientTransform="matrix(11.279739,0,0,11.318186,-31.482575,-11339.182)" gradientUnits="userSpaceOnUse"/>
    <linearGradient id="f" x2="1.8308633" y1="2227.428" y2="2219.3022" xlink:href="#a" gradientTransform="matrix(24.642529,0,0,5.1807259,-31.482575,-11339.182)" x1="1.8308633" gradientUnits="userSpaceOnUse"/>
    <linearGradient id="e" x2="4.079129" y1="1186.2643" y2="1180.5689" xlink:href="#a" gradientTransform="matrix(13.210822,0,0,9.6637585,-31.482575,-11339.182)" x1="4.079129" gradientUnits="userSpaceOnUse"/>
    <linearGradient id="d" x1="43.180351" x2="39.820713" y1="574.61732" y2="572.74495" xlink:href="#a" gradientTransform="matrix(6.4240287,0,0,19.873228,-31.482575,-11339.182)" gradientUnits="userSpaceOnUse"/>
    <linearGradient id="t" x1="7.0147489" x2="6.2835266" y1="1001.9405" y2="997.09691" xlink:href="#b" gradientTransform="matrix(11.191412,0,0,11.407513,-15.662558,-11400.305)" gradientUnits="userSpaceOnUse"/>
    <linearGradient id="ac" x1="6.2421709" x2="2.3530024" y1="1038.1768" y2="1032.0534" xlink:href="#b" gradientTransform="matrix(11.430174,0,0,11.169225,-31.482575,-11339.182)" gradientUnits="userSpaceOnUse"/>
    <linearGradient id="ad" x1="8.9798241" x2="4.6033972" y1="1016.9051" y2="1009.609" xlink:href="#b" gradientTransform="matrix(11.056562,0,0,11.546645,-31.482575,-11339.182)" gradientUnits="userSpaceOnUse"/>
    <linearGradient id="ab" x1="21.103606" x2="16.893999" y1="1025.9632" y2="1023.2618" xlink:href="#b" gradientTransform="matrix(11.169579,0,0,11.429812,-31.482575,-11339.182)" gradientUnits="userSpaceOnUse"/>
    <linearGradient id="aa" x1="29.198213" x2="28.681488" y1="1026.1776" y2="1021.52" xlink:href="#b" gradientTransform="matrix(11.205183,0,0,11.393494,-31.482575,-11339.182)" gradientUnits="userSpaceOnUse"/>
    <linearGradient id="x" x1="34.180544" x2="29.469199" y1="1020.3622" y2="1012.6659" xlink:href="#b" gradientTransform="matrix(11.216058,0,0,11.382447,-1.2807261,-11321.204)" gradientUnits="userSpaceOnUse"/>
    <linearGradient id="w" x1="37.473221" x2="34.61403" y1="1024.0783" y2="1018.6645" xlink:href="#b" gradientTransform="matrix(11.367197,0,0,11.231106,11.662924,-11459.27)" gradientUnits="userSpaceOnUse"/>
    <linearGradient id="ae" x1="28.611744" x2="26.412469" y1="1004.6289" y2="1000.8179" xlink:href="#b" gradientTransform="matrix(11.249722,0,0,11.348386,-31.482575,-11339.182)" gradientUnits="userSpaceOnUse"/>
    <linearGradient id="v" x1="19.095494" x2="13.249389" y1="1020.1262" y2="1011.5447" xlink:href="#b" gradientTransform="matrix(11.373042,0,0,11.225333,-76.785348,-11376.575)" gradientUnits="userSpaceOnUse"/>
    <linearGradient id="i" x2="8.1482581" y1="1302.5079" y2="1296.1714" xlink:href="#c" gradientTransform="matrix(14.43795,0,0,8.8424039,-31.482575,-11339.182)" x1="8.1482581" gradientUnits="userSpaceOnUse"/>
    <linearGradient id="r" x2="6.8548247" y1="1755.8858" y2="1751.0694" xlink:href="#c" gradientTransform="matrix(19.3914,0,0,6.58365,-31.482575,-11339.182)" x1="6.8548247" gradientUnits="userSpaceOnUse"/>
    <linearGradient id="q" x1="18.992256" x2="16.813741" y1="982.36065" y2="980.19084" xlink:href="#c" gradientTransform="matrix(10.79759,0,0,11.823582,-31.482575,-11339.182)" gradientUnits="userSpaceOnUse"/>
    <linearGradient id="p" x2="51.773749" y1="477.39083" y2="475.08198" xlink:href="#c" gradientTransform="matrix(5.2302513,0,0,24.409188,-31.482575,-11339.182)" x1="51.773749" gradientUnits="userSpaceOnUse"/>
    <linearGradient id="o" x1="20.355749" x2="18.453627" y1="1496.3312" y2="1492.652" xlink:href="#c" gradientTransform="matrix(16.509588,0,0,7.7328512,-31.482575,-11339.182)" gradientUnits="userSpaceOnUse"/>
    <linearGradient id="m" x1="24.83168" x2="23.468152" y1="1254.2231" y2="1247.251" xlink:href="#c" gradientTransform="matrix(13.887646,0,0,9.192788,-31.482575,-11339.182)" gradientUnits="userSpaceOnUse"/>
    <linearGradient id="l" x2="33.423238" y1="760.55338" y2="759.18502" xlink:href="#c" gradientTransform="matrix(8.47758,0,0,15.059272,-31.482575,-11339.182)" x1="33.423238" gradientUnits="userSpaceOnUse"/>
    <linearGradient id="j" x2="31.998581" y1="630.99559" y2="629.19463" xlink:href="#c" gradientTransform="matrix(7.0260172,0,0,18.170492,-31.482575,-11339.182)" x1="30.368437" gradientUnits="userSpaceOnUse"/>
  </defs>
  <!--stem-->
  <clipPath id="clip_stem">
    <path d="M247 221c123 22 112 226 91 256-11-124-12-204-91-256Z"/>
  </clipPath>
  <path class="stem" id="path_stem" style="fill:none;stroke:url(#az);stroke-width:30;clip-path:url(#clip_stem)" d="M338 477c8-55 15-215-91-256"/>
  <!--petals-->
  <clipPath id="clip_petal_1">
    <path d="M263 209c33-64 214-64 214 62-36-80-141-103-214-62Z"/>
  </clipPath>
  <path class="petal" id="path_petal_1" style="fill:none;stroke:url(#ba);stroke-width:30;clip-path:url(#clip_petal_1)" d="M263 209c61-53 186-46 214 62"/>
  <clipPath id="clip_petal_2">
    <path d="M255 153c26-31 55-66 89-69s73 10 117 86c-24-15-68-111-206-17Z"/>
  </clipPath>
  <path class="petal" id="path_petal_2" style="fill:none;stroke:url(#bb);stroke-width:30;clip-path:url(#clip_petal_2)" d="M255 153c53-42 110-111 206 17"/>
  <clipPath id="clip_petal_3">
    <path d="M237 156Q186 55 268 4 227 56 237 156Z"/>
  </clipPath>
  <path class="petal" id="path_petal_3" style="fill:none;stroke:url(#d);stroke-width:30;clip-path:url(#clip_petal_3)" d="M237 156Q207 56 268 4"/>
  <clipPath id="clip_petal_4">
    <path d="M175 179Q113 87 20 70 167 53 175 179Z"/>
  </clipPath>
  <path class="petal" id="path_petal_4" style="fill:none;stroke:url(#e);stroke-width:30;clip-path:url(#clip_petal_4)" d="M175 179Q143 70 20 70"/>
  <clipPath id="clip_petal_5">
    <path d="M168 200q-78-9-155 17 78-59 155-17Z"/>
  </clipPath>
  <path class="petal" id="path_petal_5" style="fill:none;stroke:url(#f);stroke-width:30;clip-path:url(#clip_petal_5)" d="M168 200Q90 173 13 217"/>
  <clipPath id="clip_petal_6">
    <path d="M180 230Q87 269 46 366 47 245 180 230Z"/>
  </clipPath>
  <path class="petal" id="path_petal_6" style="fill:none;stroke:url(#h);stroke-width:30;clip-path:url(#clip_petal_6)" d="M180 230Q69 253 46 366"/>
  <clipPath id="clip_petal_7">
    <path d="M217 247q-50 32-22 130 12-102 22-130Z"/>
  </clipPath>
  <path class="petal" id="path_petal_7" style="fill:none;stroke:url(#g);stroke-width:30;clip-path:url(#clip_petal_7)" d="M217 247q-31 38-22 130"/>
  <clipPath id="clip_petal_8">
    <path d="M247 244q42 62 15 129 61-77-15-129Z"/>
  </clipPath>
  <path class="petal" id="path_petal_8" style="fill:none;stroke:url(#s);stroke-width:30;clip-path:url(#clip_petal_8)" d="M247 244q59 57 15 129"/>
  <!--small petals-->
  <clipPath id="clip_petal_sm_1">
    <path d="M274 222q16-2 64 21-24-46-64-21Z"/>
  </clipPath>
  <path class="petal" id="path_petal_sm_1" style="fill:none;stroke:url(#o);stroke-width:20;clip-path:url(#clip_petal_sm_1)" d="M274 222q37-10 64 21"/>
  <clipPath id="clip_petal_sm_2">
    <path d="M259 189q23-63 84-43-49 6-84 43Z"/>
  </clipPath>
  <path class="petal" id="path_petal_sm_2" style="fill:none;stroke:url(#m);stroke-width:20;clip-path:url(#clip_petal_sm_2)" d="M259 189q29-49 84-43"/>
  <clipPath id="clip_petal_sm_3">
    <path d="M252 134q-4-37 22-40-2 17-22 40Z"/>
  </clipPath>
  <path class="petal" id="path_petal_sm_3" style="fill:none;stroke:url(#l);stroke-width:20;clip-path:url(#clip_petal_sm_3)" d="M252 134q11-34 22-40"/>
  <clipPath id="clip_petal_sm_4">
    <path d="M204 160c-4-26-18-43-22-68q38 36 22 68Z"/>
  </clipPath>
  <path class="petal" id="path_petal_sm_4" style="fill:none;stroke:url(#j);stroke-width:20;clip-path:url(#clip_petal_sm_4)" d="M204 160q3-29-22-68"/>
  <clipPath id="clip_petal_sm_5">
    <path d="M149 180c-19-25-53-28-63-38q55-17 63 38Z"/>
  </clipPath>
  <path class="petal" id="path_petal_sm_5" style="fill:none;stroke:url(#i);stroke-width:20;clip-path:url(#clip_petal_sm_5)" d="M149 180q-17-39-63-38"/>
  <clipPath id="clip_petal_sm_6">
    <path d="M173 219q-43-3-72 14c17-20 38-39 72-14Z"/>
  </clipPath>
  <path class="petal" id="path_petal_sm_6" style="fill:none;stroke:url(#r);stroke-width:20;clip-path:url(#clip_petal_sm_6)" d="M173 219q-36-17-72 14"/>
  <clipPath id="clip_petal_sm_7">
    <path d="M194 247q-23 16-43 56-7-56 43-56Z"/>
  </clipPath>
  <path class="petal" id="path_petal_sm_7" style="fill:none;stroke:url(#q);stroke-width:20;clip-path:url(#clip_petal_sm_7)" d="M194 247q-37 8-43 56"/>
  <clipPath id="clip_petal_sm_8">
    <path d="M241 257q23 33-3 61c-4-20 4-40 3-61Z"/>
  </clipPath>
  <path class="petal" id="path_petal_sm_8" style="fill:none;stroke:url(#p);stroke-width:20;clip-path:url(#clip_petal_sm_8)" d="M241 257q9 32-3 61"/>
</svg>
