<?xml version="1.0" encoding="UTF-8" standalone="no"?>
<svg xmlns:svg="http://www.w3.org/2000/svg" xmlns="http://www.w3.org/2000/svg" xmlns:xlink="http://www.w3.org/1999/xlink" viewBox="0 0 480 480" version="1.1">
  <style>
.stem {
  stroke-dasharray: 400;
  stroke-dashoffset: 400;
  animation: animation-stem 4s linear 1;
}
.petal {
  stroke-dasharray: 400;
  stroke-dashoffset: 400;
  animation: animation-petal 4s linear 1;
}

@keyframes animation-stem {
  0% {
    opacity: 0.2;
  }
  50% {
    stroke-dashoffset: 0;
    opacity: 0.9;
  }
  100% {
    stroke-dashoffset: 0;
    opacity: 0;
  }
}
@keyframes animation-petal {
  44% {
    stroke-dashoffset: 400;
    opacity: 0.6;
  }
  65% {
    stroke-dashoffset: 0;
    opacity: 0.9;
  }
  100% {
    stroke-dashoffset: -400;
    opacity: 0;
  }
}
  </style>
  <defs>
    <linearGradient id="b">
      <stop stop-color="#ffd73b" offset="0" id="stop5310"/>
      <stop stop-color="#ee8400" offset="1" id="stop5312"/>
    </linearGradient>
    <linearGradient id="c">
      <stop stop-color="#ff5959" offset="0" id="stop5315"/>
      <stop stop-color="#d90000" offset="1" id="stop5317"/>
    </linearGradient>
    <linearGradient id="a">
      <stop stop-color="#d700d7" offset="0" id="stop5320"/>
      <stop stop-color="#6e006e" offset="1" id="stop5322"/>
    </linearGradient>
    <linearGradient id="az" x1="60" x2="50" y1="580" y2="582" xlink:href="#a" gradientTransform="matrix(8.5250443,0,0,21.234768,-156.19105,-11964.788)" gradientUnits="userSpaceOnUse"/>
    <linearGradient id="bb" x1="22.174029" x2="21.003051" y1="1574.4667" y2="1565.7254" xlink:href="#a" gradientTransform="matrix(17.526917,0,0,7.2840073,-31.482575,-11339.182)" gradientUnits="userSpaceOnUse"/>
    <linearGradient id="ba" x1="27.033812" x2="24.886689" y1="1458.7127" y2="1448.1514" xlink:href="#a" gradientTransform="matrix(16.083792,0,0,7.9375675,-31.482575,-11339.182)" gradientUnits="userSpaceOnUse"/>
    <linearGradient id="s" x2="52.748" y1="588.78525" y2="589.79018" xlink:href="#a" gradientTransform="matrix(6.4650465,0,0,19.747142,-31.482575,-11339.182)" x1="44.532286" gradientUnits="userSpaceOnUse"/>
    <linearGradient id="g" x1="42.903615" x2="38.396741" y1="512.69498" y2="509.90211" xlink:href="#a" gradientTransform="matrix(5.5999979,0,0,22.797543,-31.482575,-11339.182)" gradientUnits="userSpaceOnUse"/>
    <linearGradient id="h" x1="11.453551" x2="10.12165" y1="1031.3747" y2="1022.1865" xlink:href="#a" gradientTransform="matrix(11.279739,0,0,11.318186,-31.482575,-11339.182)" gradientUnits="userSpaceOnUse"/>
    <linearGradient id="f" x2="1.8308633" y1="2227.428" y2="2219.3022" xlink:href="#a" gradientTransform="matrix(24.642529,0,0,5.1807259,-31.482575,-11339.182)" x1="1.8308633" gradientUnits="userSpaceOnUse"/>
    <linearGradient id="e" x2="4.079129" y1="1186.2643" y2="1180.5689" xlink:href="#a" gradientTransform="matrix(13.210822,0,0,9.6637585,-31.482575,-11339.182)" x1="4.079129" gradientUnits="userSpaceOnUse"/>
    <linearGradient id="d" x1="43.180351" x2="39.820713" y1="574.61732" y2="572.74495" xlink:href="#a" gradientTransform="matrix(6.4240287,0,0,19.873228,-31.482575,-11339.182)" gradientUnits="userSpaceOnUse"/>
    <linearGradient id="t" x1="7.0147489" x2="6.2835266" y1="1001.9405" y2="997.09691" xlink:href="#b" gradientTransform="matrix(11.191412,0,0,11.407513,-15.662558,-11400.305)" gradientUnits="userSpaceOnUse"/>
    <linearGradient id="ac" x1="6.2421709" x2="2.3530024" y1="1038.1768" y2="1032.0534" xlink:href="#b" gradientTransform="matrix(11.430174,0,0,11.169225,-31.482575,-11339.182)" gradientUnits="userSpaceOnUse"/>
    <linearGradient id="ad" x1="8.9798241" x2="4.6033972" y1="1016.9051" y2="1009.609" xlink:href="#b" gradientTransform="matrix(11.056562,0,0,11.546645,-31.482575,-11339.182)" gradientUnits="userSpaceOnUse"/>
    <linearGradient id="ab" x1="21.103606" x2="16.893999" y1="1025.9632" y2="1023.2618" xlink:href="#b" gradientTransform="matrix(11.169579,0,0,11.429812,-31.482575,-11339.182)" gradientUnits="userSpaceOnUse"/>
    <linearGradient id="aa" x1="29.198213" x2="28.681488" y1="1026.1776" y2="1021.52" xlink:href="#b" gradientTransform="matrix(11.205183,0,0,11.393494,-31.482575,-11339.182)" gradientUnits="userSpaceOnUse"/>
    <linearGradient id="x" x1="34.180544" x2="29.469199" y1="1020.3622" y2="1012.6659" xlink:href="#b" gradientTransform="matrix(11.216058,0,0,11.382447,-1.2807261,-11321.204)" gradientUnits="userSpaceOnUse"/>
    <linearGradient id="w" x1="37.473221" x2="34.61403" y1="1024.0783" y2="1018.6645" xlink:href="#b" gradientTransform="matrix(11.367197,0,0,11.231106,11.662924,-11459.27)" gradientUnits="userSpaceOnUse"/>
    <linearGradient id="ae" x1="28.611744" x2="26.412469" y1="1004.6289" y2="1000.8179" xlink:href="#b" gradientTransform="matrix(11.249722,0,0,11.348386,-31.482575,-11339.182)" gradientUnits="userSpaceOnUse"/>
    <linearGradient id="v" x1="19.095494" x2="13.249389" y1="1020.1262" y2="1011.5447" xlink:href="#b" gradientTransform="matrix(11.373042,0,0,11.225333,-76.785348,-11376.575)" gradientUnits="userSpaceOnUse"/>
    <linearGradient id="i" x2="8.1482581" y1="1302.5079" y2="1296.1714" xlink:href="#c" gradientTransform="matrix(14.43795,0,0,8.8424039,-31.482575,-11339.182)" x1="8.1482581" gradientUnits="userSpaceOnUse"/>
    <linearGradient id="r" x2="6.8548247" y1="1755.8858" y2="1751.0694" xlink:href="#c" gradientTransform="matrix(19.3914,0,0,6.58365,-31.482575,-11339.182)" x1="6.8548247" gradientUnits="userSpaceOnUse"/>
    <linearGradient id="q" x1="18.992256" x2="16.813741" y1="982.36065" y2="980.19084" xlink:href="#c" gradientTransform="matrix(10.79759,0,0,11.823582,-31.482575,-11339.182)" gradientUnits="userSpaceOnUse"/>
    <linearGradient id="p" x2="51.773749" y1="477.39083" y2="475.08198" xlink:href="#c" gradientTransform="matrix(5.2302513,0,0,24.409188,-31.482575,-11339.182)" x1="51.773749" gradientUnits="userSpaceOnUse"/>
    <linearGradient id="o" x1="20.355749" x2="18.453627" y1="1496.3312" y2="1492.652" xlink:href="#c" gradientTransform="matrix(16.509588,0,0,7.7328512,-31.482575,-11339.182)" gradientUnits="userSpaceOnUse"/>
    <linearGradient id="m" x1="24.83168" x2="23.468152" y1="1254.2231" y2="1247.251" xlink:href="#c" gradientTransform="matrix(13.887646,0,0,9.192788,-31.482575,-11339.182)" gradientUnits="userSpaceOnUse"/>
    <linearGradient id="l" x2="33.423238" y1="760.55338" y2="759.18502" xlink:href="#c" gradientTransform="matrix(8.47758,0,0,15.059272,-31.482575,-11339.182)" x1="33.423238" gradientUnits="userSpaceOnUse"/>
    <linearGradient id="j" x2="31.998581" y1="630.99559" y2="629.19463" xlink:href="#c" gradientTransform="matrix(7.0260172,0,0,18.170492,-31.482575,-11339.182)" x1="30.368437" gradientUnits="userSpaceOnUse"/>
  </defs>
  <!--stem-->
  <clipPath id="clip_stem">
    <path d="M247.23382 220.55672C287.38178 244.83042 312.81377 288.61958 320.69855 334.20938C330.71914 381.34687 335.72427 429.41835 338.07032 477.50983C343.50427 469.21369 343.69666 458.74568 346.34196 449.39322C355.82121 399.23829 348.2738 347.40879 333.83651 298.96559C323.76163 268.48177 300.81389 242.48421 271.29872 229.594C263.53324 225.95005 255.46678 222.95852 247.23382 220.55672C247.23382 220.55672 247.23382 220.55672 247.23382 220.55672"/>
  </clipPath>
  <path class="stem" id="path_stem" style="fill:none;stroke:url(#az);stroke-width:30;clip-path:url(#clip_stem)" d="m 338.07032,477.50983 c 8.22728,-106.93073 8.3505,-209.3829 -90.8365,-256.95311"/>
  <!--petals-->
  <clipPath id="clip_petal_1">
    <path d="M262.57687 208.6768C296.95736 188.62404 339.27236 183.23894 377.67437 193.54652C409.29947 200.32645 440.96669 215.39401 459.73924 242.72949C466.59071 252.11209 472.18068 262.37119 476.81436 273.01197C479.73364 260.62948 476.00855 247.83086 472.15604 236.08741C456.9513 197.34272 417.52637 171.10915 376.58795 167.74239C342.60049 164.2139 305.6481 169.89258 278.50951 192.00747C272.39013 196.81217 267.54923 202.63828 262.57687 208.6768C262.57687 208.6768 262.57687 208.6768 262.57687 208.6768"/>
  </clipPath>
  <path class="petal" id="path_petal_1" style="fill:none;stroke:url(#ba);stroke-width:30;clip-path:url(#clip_petal_1)" d="m 262.57687,208.6768 c 47.33164,-38.26856 180.64636,-59.69709 214.23749,64.33517"/>
  <clipPath id="clip_petal_2">
    <path d="M254.95042 153.3915C284.67802 137.04184 313.24111 115.40455 347.88267 111.202C378.80315 109.65509 408.88023 122.74924 432.95044 141.38888C443.27496 149.6595 452.40324 159.5147 459.36915 170.78693C442.48359 140.81135 422.13745 110.20821 390.57667 94.180423C371.4446 84.524198 348.28731 80.922754 327.95288 89.042037C307.28848 95.984648 290.27981 110.74397 277.02432 127.69872C269.77232 136.35161 262.81314 145.27217 254.95042 153.3915C254.95042 153.3915 254.95042 153.3915 254.95042 153.3915"/>
  </clipPath>
  <path class="petal" id="path_petal_2" style="fill:none;stroke:url(#bb);stroke-width:30;clip-path:url(#clip_petal_2)" d="M 254.95042,153.3915 C 320.07649,81.804819 387.54568,70.160376 459.36915,170.78693"/>
  <clipPath id="clip_petal_3">
    <path d="M237.46844 156.77631C235.23135 148.80373 235.66477 140.39712 234.77087 132.22083C232.63335 92.336303 238.59449 50.775069 259.24735 15.988562C261.77473 11.705724 264.5011 7.5402132 267.41717 3.5119129C243.88271 19.721817 223.98221 43.870967 219.42904 72.760283C214.66433 101.83908 224.02365 131.26093 237.46844 156.77631C237.46844 156.77631 237.46844 156.77631 237.46844 156.77631"/>
  </clipPath>
  <path class="petal" id="path_petal_3" style="fill:none;stroke:url(#d);stroke-width:30;clip-path:url(#clip_petal_3)" d="M 237.46844,156.77631 C 215.8481,97.443851 222.90783,45.59315 267.41717,3.5119129"/>
  <clipPath id="clip_petal_4">
    <path d="M22.765616 69.539862C55.937471 65.398052 91.277024 66.818665 121.51292 82.447714C146.58541 95.346911 164.07147 120.33227 170.44673 147.50959C173.09636 157.73126 174.5626 168.23885 175.12639 178.7765C164.48726 167.81294 156.53542 154.61473 146.38173 143.22118C126.64789 119.43828 102.30796 98.969546 73.700207 86.781774C57.346619 79.361367 40.171449 73.882914 22.765616 69.539862C22.765616 69.539862 22.765616 69.539862 22.765616 69.539862"/>
  </clipPath>
  <path class="petal" id="path_petal_4" style="fill:none;stroke:url(#e);stroke-width:30;clip-path:url(#clip_petal_4)" d="M 175.12639,178.7765 C 154.64393,116.35131 110.95654,69.696672 22.765616,69.539862"/>
  <clipPath id="clip_petal_5">
    <path d="M98.393302 183.85483C67.668288 185.7758 38.659294 198.79008 13.634526 216.16965C58.102125 202.59023 104.8103 192.15024 151.54462 197.29783C157.28982 197.88415 163.01369 198.683 168.69714 199.70817C147.12685 188.63362 122.76086 182.07544 98.393302 183.85483C98.393302 183.85483 98.393302 183.85483 98.393302 183.85483"/>
  </clipPath>
  <path class="petal" id="path_petal_5" style="fill:none;stroke:url(#f);stroke-width:30;clip-path:url(#clip_petal_5)" d="M 168.69714,199.70817 C 103.97432,180.25827 56.478252,193.76389 13.634526,216.16965"/>
  <clipPath id="clip_petal_6">
    <path d="M180.15694 230.11396C138.90561 232.0516 97.157853 250.0157 71.655617 283.27394C53.764926 306.46307 44.079759 336.02598 45.539998 365.3373C64.449272 331.25952 83.04832 295.57033 113.1626 269.8591C132.99609 252.85445 156.33909 240.53358 180.15694 230.11396C180.15694 230.11396 180.15694 230.11396 180.15694 230.11396"/>
  </clipPath>
  <path class="petal" id="path_petal_6" style="fill:none;stroke:url(#h);stroke-width:30;clip-path:url(#clip_petal_6)" d="M 180.15694,230.11396 C 102.16883,245.19451 62.248959,294.72101 45.539998,365.3373"/>
  <clipPath id="clip_petal_7">
    <path d="M216.95132 247.14589C198.55886 258.20722 188.69623 279.47692 186.59479 300.25124C183.45785 325.47012 187.73409 350.98876 194.77109 375.20729C199.07304 332.06289 205.038 288.9274 216.95132 247.14589C216.95132 247.14589 216.95132 247.14589 216.95132 247.14589"/>
  </clipPath>
  <path class="petal" id="path_petal_7" style="fill:none;stroke:url(#g);stroke-width:30;clip-path:url(#clip_petal_7)" d="m 216.95132,247.14589 c -33.15028,38.62026 -23.63445,83.97727 -22.18023,128.0614"/>
  <clipPath id="clip_petal_8">
    <path d="M246.18571 243.65322C269.36711 270.67753 277.1617 308.81115 270.30128 343.34508C268.71549 352.85479 266.286 362.21894 263.13396 371.32842C274.20983 355.9351 285.96554 339.44888 287.53731 319.92976C290.32593 295.17333 278.52339 270.10051 259.49794 254.49141C255.28541 250.61312 250.81352 247.02265 246.18571 243.65322C246.18571 243.65322 246.18571 243.65322 246.18571 243.65322"/>
  </clipPath>
  <path class="petal" id="path_petal_8" style="fill:none;stroke:url(#s);stroke-width:30;clip-path:url(#clip_petal_8)" d="m 246.18571,243.65322 c 41.52423,39.92055 44.47812,82.67715 16.94825,127.6752"/>
  <!--small petals-->
  <clipPath id="clip_petal_sm_1">
    <path d="M273.17921 222.21606C295.67184 222.5976 318.14301 229.67466 336.38256 242.93313C334.38311 235.58741 329.36052 229.54491 324.10639 224.23884C314.4084 215.43527 300.10363 211.7444 287.47121 215.55487C282.3608 216.89869 277.49228 219.16225 273.17921 222.21606C273.17921 222.21606 273.17921 222.21606 273.17921 222.21606"/>
  </clipPath>
  <path class="petal" id="path_petal_sm_1" style="fill:none;stroke:url(#o);stroke-width:20;clip-path:url(#clip_petal_sm_1)" d="m 273.17921,222.21606 c 25.53851,-7.49997 46.80634,-1.23887 63.20335,20.71707"/>
  <clipPath id="clip_petal_sm_2">
    <path d="M258.63918 190.62446C271.72603 175.10289 289.58209 164.84533 306.81784 154.62666C315.552 149.77544 325.28396 145.96199 335.42581 146.1967C331.67072 143.71255 327.00405 143.60652 322.77225 142.4819C307.1978 140.22909 291.38251 146.27186 279.52458 156.22167C271.25614 162.73375 264.50184 171.40068 261.32279 181.52046C260.27062 184.50591 259.40334 187.5536 258.63918 190.62446C258.63918 190.62446 258.63918 190.62446 258.63918 190.62446"/>
  </clipPath>
  <path class="petal" id="path_petal_sm_2" style="fill:none;stroke:url(#m);stroke-width:20;clip-path:url(#clip_petal_sm_2)" d="m 258.63918,190.62446 c 16.31227,-30.44424 41.17944,-46.48023 76.78663,-44.42776"/>
  <clipPath id="clip_petal_sm_3">
    <path d="M274.59361 93.593109C268.30359 95.317998 261.72739 97.815381 257.59126 103.13013C253.02575 109.09572 252.00513 116.86727 251.87667 124.1653C251.81997 127.61539 251.98891 131.06571 252.27664 134.50311C259.38315 122.84925 268.20779 112.03905 272.83218 99.04101C273.49042 97.249075 274.08 95.431779 274.59361 93.593109C274.59361 93.593109 274.59361 93.593109 274.59361 93.593109"/>
  </clipPath>
  <path class="petal" id="path_petal_sm_3" style="fill:none;stroke:url(#l);stroke-width:20;clip-path:url(#clip_petal_sm_3)" d="m 252.27664,134.50311 c 2.68774,-15.28133 6.62948,-30.12859 22.31697,-40.910001"/>
  <clipPath id="clip_petal_sm_4">
    <path d="M182.77076 93.593109C184.87025 111.18687 193.50872 126.96595 198.79169 143.663C200.49767 148.71808 202.02541 153.83836 203.20669 159.04301C206.37029 157.9262 206.03621 156.32414 206.58403 153.67151C209.35104 137.20642 205.23424 116.96284 194.09737 104.24826C190.73637 100.2877 186.93003 96.705019 182.77076 93.593109C182.77076 93.593109 182.77076 93.593109 182.77076 93.593109"/>
  </clipPath>
  <path class="petal" id="path_petal_sm_4" style="fill:none;stroke:url(#j);stroke-width:20;clip-path:url(#clip_petal_sm_4)" d="M 203.20669,159.04301 C 205.55668,138.673 199.71133,117.00899 182.77076,93.593109"/>
  <clipPath id="clip_petal_sm_5">
    <path d="M86.16157 140.98051C87.61235 144.35336 91.633347 144.97168 94.551529 146.57126C109.7493 153.39345 125.41746 159.74181 138.72149 169.98699C142.12696 172.53224 145.40443 175.24847 148.5408 178.1187C147.5207 171.62014 144.53899 165.65151 141.76575 159.75616C137.83094 151.9728 131.95843 144.40806 123.40425 141.52453C113.68868 138.15499 103.2337 139.42213 93.207024 140.2435C90.856887 140.47309 88.509166 140.7265 86.16157 140.98051C86.16157 140.98051 86.16157 140.98051 86.16157 140.98051"/>
  </clipPath>
  <path class="petal" id="path_petal_sm_5" style="fill:none;stroke:url(#i);stroke-width:20;clip-path:url(#clip_petal_sm_5)" d="M 148.5408,178.1187 C 133.27049,143.99342 109.26632,144.25771 86.16157,140.98051"/>
  <clipPath id="clip_petal_sm_6">
    <path d="M101.44207 232.01059C117.88728 222.96629 136.66748 219.22501 155.21771 217.78535C161.0819 217.57035 166.97516 217.87575 172.76349 218.86259C161.46804 210.00262 146.30149 206.34513 132.19052 208.80835C123.35529 210.88962 116.21887 217.01551 110.22951 223.54913C107.36474 226.43473 104.52925 229.35876 101.44207 232.01059C101.44207 232.01059 101.44207 232.01059 101.44207 232.01059"/>
  </clipPath>
  <path class="petal" id="path_petal_sm_6" style="fill:none;stroke:url(#r);stroke-width:20;clip-path:url(#clip_petal_sm_6)" d="m 172.76349,218.86259 c -37.45414,-15.61167 -52.85659,1.00607 -71.32142,13.148"/>
  <clipPath id="clip_petal_sm_7">
    <path d="M163.20677 258.32075C155.69872 264.35963 152.57119 274.217 152.01097 283.53481C151.34598 289.50117 151.15443 295.50509 150.77386 301.49293C157.26135 290.45235 161.93663 278.19749 170.51621 268.50105C177.87759 261.70901 184.85619 254.32707 193.47474 249.08375C194.74779 250.00663 191.44986 247.40682 190.59375 248.12395C180.61141 248.10405 171.01829 252.31409 163.20677 258.32075C163.20677 258.32075 163.20677 258.32075 163.20677 258.32075"/>
  </clipPath>
  <path class="petal" id="path_petal_sm_7" style="fill:none;stroke:url(#q);stroke-width:20;clip-path:url(#clip_petal_sm_7)" d="m 193.47474,249.08375 c -27.89707,2.85302 -36.29731,26.56311 -42.70088,52.40918"/>
  <clipPath id="clip_petal_sm_8">
    <path d="M241.67769 257.19248C239.44678 259.02751 239.92345 262.18198 239.90923 264.74049C239.30641 280.77361 237.17133 296.99186 240.14203 312.91951C243.37573 309.58448 246.15884 305.72694 247.66488 301.29792C249.31041 297.59841 249.77129 293.53078 250.35803 289.56522C250.93589 284.00083 250.91842 278.21842 248.99277 272.89601C247.19898 267.3884 244.54296 262.20971 241.67769 257.19248C241.67769 257.19248 241.67769 257.19248 241.67769 257.19248"/>
  </clipPath>
  <path class="petal" id="path_petal_sm_8" style="fill:none;stroke:url(#p);stroke-width:20;clip-path:url(#clip_petal_sm_8)" d="m 241.67769,257.19248 c 5.33079,18.41777 6.38293,36.95117 -1.53566,55.72703"/>
</svg>
