<svg xmlns="http://www.w3.org/2000/svg" viewBox="0 0 512 512">
  <style>
    .step1 #sunStep2,

    .step1 #sunStep3,
    .step2 #sunStep3,

    .step1 #sunStep4,
    .step2 #sunStep4,
    .step3 #sunStep4,

    .step1 #sunStep5,
    .step2 #sunStep5,
    .step3 #sunStep5,
    .step4 #sunStep5 {
      display: none;
    }

    @keyframes sunAnimation1 {
      0% {
        r: 0%;
      }

      25% {
        r: 32.22%;
      }

      75% {
        r: 32.22%;
      }

      100% {
        r: 50%;
      }
    }

    @keyframes sunAnimation2 {
      0% {
        stroke-dashoffset: 1040;
      }

      100% {
        stroke-dashoffset: 0;
      }
    }

    @keyframes sunAnimation3 {
      0% {
        stroke-dashoffset: 1880;
      }

      100% {
        stroke-dashoffset: 0;
      }
    }

    @keyframes sunAnimation4 {
      0% {
        stroke-dashoffset: 395;
      }

      100% {
        stroke-dashoffset: 0;
      }
    }

    @keyframes sunAnimation5 {
      0% {
        transform: translate(0px, -128px);
        opacity: 0;
      }

      35% {
        transform: translate(0px, 0px);
      }

      70% {
        transform: translate(0px, -64px);
      }

      100% {
        transform: translate(0px, 0px);
        opacity: 1;
      }
    }

    .step1.animate #sunClipPath1 circle {
      animation: sunAnimation1 2s 1;
    }

    .step2.animate #sunStep2 path {
      animation: sunAnimation2 2s 1;
    }

    .step3.animate #sunStep3 path {
      animation: sunAnimation3 4s 1;
    }

    .step4.animate #sunStep4 path {
      animation: sunAnimation4 2s 1 linear;
    }

    .step5.animate #sunStep5 {
      animation: sunAnimation5 2s 1 ease-in-out;
    }

  </style>
  <defs>
    <clipPath id="sunClipPath1">
      <circle cx="256" cy="256" r="256" />
    </clipPath>
    <clipPath id="sunClipPath2">
      <path
        d="M256 83.867c-94.915 0-172.132 77.219-172.132 172.132s77.218 172.132 172.132 172.132 172.132-77.218 172.132-172.132S350.914 83.867 256 83.867zm0 329.057c-86.529 0-156.924-70.396-156.924-156.924S169.47 99.075 256 99.075s156.924 70.395 156.924 156.924-70.395 156.925-156.924 156.925z" />
    </clipPath>
    <clipPath id="sunClipPath3">
      <path transform="rotate(-146.3 256 256)"
        d="M510.526 301.328l-33.458-45.605c-5.898-8.04-6.59-18.872-1.763-27.596l27.379-49.494a7.602 7.602 0 00-3.593-10.642l-51.778-22.765c-9.128-4.013-15.143-13.048-15.326-23.018l-1.035-56.552a7.6 7.6 0 00-8.431-7.419l-56.225 6.173c-9.909 1.087-19.638-3.728-24.781-12.271L312.341 3.682a7.604 7.604 0 00-11.013-2.208l-45.604 33.457c-8.039 5.898-18.872 6.59-27.597 1.763L178.633 9.315a7.602 7.602 0 00-10.642 3.593l-22.765 51.777c-4.013 9.128-13.048 15.144-23.018 15.327l-56.552 1.036a7.61 7.61 0 00-5.57 2.579 7.608 7.608 0 00-1.849 5.853l6.173 56.224c1.088 9.912-3.728 19.638-12.271 24.782L3.682 199.658a7.598 7.598 0 00-3.533 5.019 7.611 7.611 0 001.324 5.994l33.458 45.605c5.899 8.04 6.59 18.872 1.764 27.597L9.316 333.365a7.602 7.602 0 003.593 10.642l51.778 22.766c9.128 4.013 15.144 13.048 15.327 23.018l1.035 56.552a7.61 7.61 0 002.579 5.57 7.588 7.588 0 005.853 1.849l56.224-6.173c9.903-1.091 19.638 3.728 24.782 12.271l29.173 48.458a7.598 7.598 0 006.514 3.681 7.605 7.605 0 004.499-1.473l45.605-33.458c8.04-5.898 18.871-6.59 27.597-1.763l49.493 27.379a7.604 7.604 0 0010.642-3.593l22.766-51.778c4.013-9.127 13.048-15.144 23.018-15.327l56.552-1.035a7.61 7.61 0 005.57-2.579 7.607 7.607 0 001.849-5.852l-6.173-56.225c-1.088-9.911 3.728-19.638 12.271-24.781l48.458-29.173a7.598 7.598 0 002.205-11.013zm-58.511 27.156c-13.606 8.191-21.278 23.684-19.544 39.471l5.264 47.943-48.223.883c-15.878.291-30.269 9.873-36.661 24.411l-19.412 44.153-42.204-23.347c-13.897-7.689-31.15-6.586-43.955 2.809l-38.888 28.531-24.877-41.322c-7.424-12.331-20.842-19.786-35.043-19.786-1.469 0-2.947.08-4.428.242L96.1 437.736l-.883-48.223c-.291-15.879-9.872-30.269-24.411-36.661l-44.152-19.413 23.347-42.204c7.688-13.897 6.585-31.15-2.809-43.955l-28.53-38.889 41.321-24.876c13.606-8.191 21.278-23.684 19.544-39.471L74.264 96.1l48.223-.883c15.878-.291 30.269-9.872 36.661-24.411l19.412-44.152 42.204 23.347c13.897 7.687 31.15 6.585 43.955-2.809l38.888-28.53 24.877 41.321c8.191 13.606 23.684 21.278 39.47 19.544l47.944-5.264.883 48.223c.29 15.879 9.872 30.269 24.41 36.661l44.153 19.412-23.347 42.204c-7.688 13.896-6.585 31.149 2.809 43.954l28.531 38.889-41.322 24.878z" />
    </clipPath>
  </defs>
  <g clip-path="url(#sunClipPath1)">
    <g transform="rotate(-146.3 256 256)">
      <path
        d="M359.812 444.252l-22.765 51.778-49.494-27.379a33.261 33.261 0 00-35.775 2.286l-45.606 33.458-29.173-48.459a33.261 33.261 0 00-32.126-15.907l-56.224 6.173-1.035-56.552a33.258 33.258 0 00-19.869-29.839l-51.778-22.765 27.379-49.494a33.261 33.261 0 00-2.286-35.775L7.603 206.172l48.459-29.173a33.261 33.261 0 0015.907-32.126l-6.173-56.224 56.552-1.035a33.258 33.258 0 0029.839-19.869l22.765-51.778 49.494 27.379a33.261 33.261 0 0035.775-2.286l45.605-33.457 29.173 48.459a33.261 33.261 0 0032.126 15.907l56.224-6.173 1.035 56.552a33.258 33.258 0 0019.869 29.839l51.778 22.765-27.379 49.494a33.261 33.261 0 002.286 35.775l33.458 45.604-48.459 29.173a33.261 33.261 0 00-15.907 32.126l6.173 56.224-56.552 1.035a33.262 33.262 0 00-29.839 19.869z"
        fill="#db0" stroke="none" />
      <path
        d="M470.937 260.221a33.26 33.26 0 01-2.286-35.775l27.379-49.494-47.411-20.846c.034 1.736.066 3.471.066 5.215 0 144.26-116.946 261.206-261.206 261.206-35.296 0-68.948-7.016-99.66-19.704l.83 45.379 56.224-6.173a33.263 33.263 0 0132.126 15.907l29.173 48.459 45.605-33.458a33.26 33.26 0 0135.775-2.286l49.494 27.379 22.765-51.778a33.266 33.266 0 0129.839-19.869l56.552-1.035-6.173-56.224a33.262 33.262 0 0115.908-32.126l48.458-29.173-33.458-45.604z"
        opacity=".2" fill="#630" />
      <circle cx="256" cy="256" r="165" fill="#fd4" stroke="none" />
    </g>
  </g>
  <g id="sunStep2">
    <path stroke-dasharray="1040" stroke-dashoffset="0" stroke="black" stroke-width="20" fill="none"
      clip-path="url(#sunClipPath2)" d="M256 91a165 165 0 0 1 0 330a165 165 0 0 1 0 -330z" />
  </g>
  <g id="sunStep3">
    <g clip-path="url(#sunClipPath3)">
      <path stroke-dasharray="1880" stroke-dashoffset="0" stroke="black" stroke-width="28" fill="none"
        transform="rotate(-146.3 256 256) translate(9 9) scale(0.965)"
        d="M510.526 301.328l-33.458-45.605c-5.898-8.04-6.59-18.872-1.763-27.596l27.379-49.494a7.602 7.602 0 00-3.593-10.642l-51.778-22.765c-9.128-4.013-15.143-13.048-15.326-23.018l-1.035-56.552a7.6 7.6 0 00-8.431-7.419l-56.225 6.173c-9.909 1.087-19.638-3.728-24.781-12.271L312.341 3.682a7.604 7.604 0 00-11.013-2.208l-45.604 33.457c-8.039 5.898-18.872 6.59-27.597 1.763L178.633 9.315a7.602 7.602 0 00-10.642 3.593l-22.765 51.777c-4.013 9.128-13.048 15.144-23.018 15.327l-56.552 1.036a7.61 7.61 0 00-5.57 2.579 7.608 7.608 0 00-1.849 5.853l6.173 56.224c1.088 9.912-3.728 19.638-12.271 24.782L3.682 199.658a7.598 7.598 0 00-3.533 5.019 7.611 7.611 0 001.324 5.994l33.458 45.605c5.899 8.04 6.59 18.872 1.764 27.597L9.316 333.365a7.602 7.602 0 003.593 10.642l51.778 22.766c9.128 4.013 15.144 13.048 15.327 23.018l1.035 56.552a7.61 7.61 0 002.579 5.57 7.588 7.588 0 005.853 1.849l56.224-6.173c9.903-1.091 19.638 3.728 24.782 12.271l29.173 48.458a7.598 7.598 0 006.514 3.681 7.605 7.605 0 004.499-1.473l45.605-33.458c8.04-5.898 18.871-6.59 27.597-1.763l49.493 27.379a7.604 7.604 0 0010.642-3.593l22.766-51.778c4.013-9.127 13.048-15.144 23.018-15.327l56.552-1.035a7.61 7.61 0 005.57-2.579 7.607 7.607 0 001.849-5.852l-6.173-56.225c-1.088-9.911 3.728-19.638 12.271-24.781l48.458-29.173a7.598 7.598 0 002.205-11.013z" />
    </g>
  </g>
  <g id="sunStep4">
    <path stroke="#d36" stroke-width="16" fill="none" transform="rotate(-142 256 256)" stroke-dasharray="395"
      stroke-dashoffset="0"
      d="M256 138.335c-64.881 0-117.665 52.785-117.665 117.665a7.605 7.605 0 0015.208 0c0-56.495 45.961-102.457 102.457-102.457a7.605 7.605 0 000-15.208z" />

    <!-- <g transform="rotate(-146.3 256 256)">
      <path
        d="M256 138.335c-64.881 0-117.665 52.785-117.665 117.665a7.605 7.605 0 0015.208 0c0-56.495 45.961-102.457 102.457-102.457a7.605 7.605 0 000-15.208z" />
    </g> -->
  </g>

  <!-- <circle cx="256" cy="256" r="165" stroke="white" fill="none" /> -->
  <!-- <circle cx="256" cy="256" r="256" stroke="black" fill="none" /> -->

  <g id="sunStep5">
    <g transform="translate(64 8) scale(0.75)">
      <path
        d="M282.483 234.416a8.826 8.826 0 01-8.828-8.828v-5.319c0-9.737-7.923-17.655-17.655-17.655s-17.655 7.918-17.655 17.655v5.319c0 4.875-3.948 8.828-8.828 8.828s-8.828-3.953-8.828-8.828v-5.319c0-19.47 15.837-35.31 35.31-35.31s35.31 15.84 35.31 35.31v5.319a8.824 8.824 0 01-8.826 8.828zM8.828 193.787c-4.879 0-8.828 3.953-8.828 8.828s3.948 8.828 8.828 8.828h44.138v-17.655H8.828zM503.172 193.787h-44.138v17.655h44.138c4.879 0 8.828-3.953 8.828-8.828s-3.948-8.827-8.828-8.827z" />
      <!-- fill="#e1a546" -->
      <path
        d="M132.414 352.684a8.83 8.83 0 01-3.742-.832C79.319 328.761 26.483 272.516 26.483 225.588c0-36.543 29.492-66.272 65.75-66.272 14.733 0 28.724 4.853 40.181 13.806 11.457-8.952 25.449-13.806 40.181-13.806 36.258 0 65.75 29.728 65.75 66.272 0 46.926-52.836 103.172-102.189 126.263a8.82 8.82 0 01-3.742.833z" />
      <!-- fill="#ffdc64" -->
      <path
        d="M379.586 352.684a8.83 8.83 0 01-3.742-.832c-49.353-23.091-102.189-79.336-102.189-126.263 0-36.543 29.492-66.272 65.75-66.272 14.733 0 28.724 4.853 40.181 13.806 11.457-8.952 25.449-13.806 40.181-13.806 36.258 0 65.75 29.728 65.75 66.272 0 46.926-52.836 103.172-102.189 126.263a8.83 8.83 0 01-3.742.832z" />
      <!-- fill="#ffdc64" -->
      <g>
        <path
          d="M92.233 176.973c-26.517 0-48.095 21.81-48.095 48.616 0 38.483 45.759 87.043 88.276 108.452 42.517-21.409 88.276-69.97 88.276-108.452 0-26.806-21.578-48.617-48.095-48.617-12.802 0-24.845 5.026-33.922 14.159-3.31 3.328-9.207 3.328-12.518 0-9.077-9.132-21.12-14.158-33.922-14.158z"
          fill="#ff507d" />
        <path
          d="M339.405 176.973c-26.517 0-48.095 21.811-48.095 48.617 0 38.483 45.759 87.043 88.276 108.452 42.517-21.409 88.276-69.97 88.276-108.452 0-26.806-21.578-48.617-48.095-48.617-12.802 0-24.845 5.026-33.922 14.159-3.31 3.328-9.207 3.328-12.518 0-9.077-9.133-21.12-14.159-33.922-14.159z"
          fill="#ff507d" />
        <path
          d="M151.88 298.235a8.802 8.802 0 01-6.759-3.143c-3.147-3.729-2.664-9.298 1.06-12.436 15.586-13.126 28.681-28.918 35.043-42.25 2.087-4.388 7.319-6.268 11.767-4.168 4.396 2.099 6.268 7.371 4.163 11.772-7.491 15.715-21.922 33.267-39.595 48.147a8.787 8.787 0 01-5.679 2.078zm38.715-76.073a8.806 8.806 0 01-7.405-4.009c-2.397-3.677-6.354-5.87-10.595-5.87-4.879 0-8.828-3.953-8.828-8.828s3.948-8.828 8.828-8.828c10.232 0 19.724 5.19 25.388 13.888 2.664 4.082 1.508 9.551-2.578 12.215a8.75 8.75 0 01-4.81 1.432z"
          fill="#ff6991" />
        <path
          d="M399.052 298.235a8.802 8.802 0 01-6.759-3.143c-3.147-3.729-2.664-9.298 1.06-12.436 15.586-13.126 28.681-28.918 35.043-42.25 2.087-4.388 7.319-6.268 11.767-4.168 4.396 2.099 6.268 7.371 4.163 11.772-7.491 15.715-21.922 33.267-39.595 48.147a8.783 8.783 0 01-5.679 2.078zm38.716-76.073a8.806 8.806 0 01-7.405-4.009c-2.397-3.677-6.354-5.87-10.595-5.87-4.879 0-8.828-3.953-8.828-8.828s3.948-8.828 8.828-8.828c10.232 0 19.724 5.19 25.388 13.888 2.664 4.082 1.508 9.551-2.578 12.215a8.75 8.75 0 01-4.81 1.432z"
          fill="#ff6991" />
        <path
          d="M137.004 297.257c-27.223-23.852-48.728-54.955-48.728-81.336a48.2 48.2 0 013.514-18.074c1.537-3.814 1.108-8.126-1.007-11.651-3.454-5.757-10.633-8.097-16.831-5.515-17.474 7.278-29.814 24.648-29.814 44.908 0 38.483 45.759 87.043 88.276 108.452l.29-.147c14.143-7.149 16.221-26.192 4.3-36.637z"
          fill="#d23c69" />
        <path
          d="M384.177 297.257c-27.223-23.852-48.728-54.955-48.728-81.336a48.2 48.2 0 013.514-18.074c1.537-3.814 1.108-8.126-1.007-11.651-3.454-5.757-10.633-8.097-16.831-5.515-17.474 7.278-29.814 24.648-29.814 44.908 0 38.483 45.759 87.043 88.276 108.452l.29-.147c14.142-7.149 16.22-26.192 4.3-36.637z"
          fill="#d23c69" />
      </g>
    </g>
  </g>
</svg>
