<svg xmlns="http://www.w3.org/2000/svg" viewBox="0 0 512 512">
  <style>
    .step1 #sunStep2,

    .step1 #sunStep3,
    .step2 #sunStep3,

    .step1 #sunStep4,
    .step2 #sunStep4,
    .step3 #sunStep4,

    .step1 #sunStep5,
    .step2 #sunStep5,
    .step3 #sunStep5,
    .step4 #sunStep5 {
      display: none;
    }

    @keyframes sunAnimation1 {
      0% {
        r: 0%;
      }

      25% {
        r: 32.22%;
      }

      75% {
        r: 32.22%;
      }

      100% {
        r: 50%;
      }
    }

    @keyframes sunAnimation2 {
      0% {
        stroke-dashoffset: 1040;
      }

      100% {
        stroke-dashoffset: 0;
      }
    }

    @keyframes sunAnimation3 {
      0% {
        stroke-dashoffset: 1880;
      }

      100% {
        stroke-dashoffset: 0;
      }
    }

    @keyframes sunAnimation4 {
      0% {
        stroke-dashoffset: 395;
      }

      100% {
        stroke-dashoffset: 0;
      }
    }

    @keyframes sunAnimation5 {
      0% {
        transform: translate(0px, -128px);
        opacity: 0;
      }

      35% {
        transform: translate(0px, 0px);
      }

      70% {
        transform: translate(0px, -64px);
      }

      100% {
        transform: translate(0px, 0px);
        opacity: 1;
      }
    }

    .step1.animate #sunClipPath1 circle {
      animation: sunAnimation1 2s 1;
    }

    .step2.animate #sunStep2 path {
      animation: sunAnimation2 2s 1;
    }

    .step3.animate #sunStep3 path {
      animation: sunAnimation3 4s 1;
    }

    .step4.animate #sunStep4 path {
      animation: sunAnimation4 2s 1 linear;
    }

    .step5.animate #sunStep5 {
      animation: sunAnimation5 2s 1 ease-in-out;
    }

  </style>
  <defs>
    <clipPath id="sunClipPath1">
      <circle cx="256" cy="256" r="256" />
    </clipPath>
    <clipPath id="sunClipPath2">
      <path
        d="M256 83.867c-94.915 0-172.132 77.219-172.132 172.132s77.218 172.132 172.132 172.132 172.132-77.218 172.132-172.132S350.914 83.867 256 83.867zm0 329.057c-86.529 0-156.924-70.396-156.924-156.924S169.47 99.075 256 99.075s156.924 70.395 156.924 156.924-70.395 156.925-156.924 156.925z" />
    </clipPath>
    <clipPath id="sunClipPath3">
      <path
        d="M69.396 77.067l2.532 56.505c.446 9.961-4.989 19.357-13.845 23.937l-50.24 25.986a7.602 7.602 0 00-2.915 10.847l30.446 47.668c5.368 8.403 5.359 19.257-.02 27.653L4.836 317.286a7.6 7.6 0 002.897 10.85l50.202 26.061c8.847 4.594 14.27 13.998 13.808 23.958l-2.614 56.502a7.604 7.604 0 007.937 7.947l56.504-2.532c9.96-.446 19.357 4.989 23.937 13.846l25.986 50.24a7.602 7.602 0 0010.847 2.915l47.668-30.445c8.403-5.368 19.258-5.36 27.654.02l47.623 30.515a7.61 7.61 0 006.065.945 7.608 7.608 0 004.786-3.843l26.06-50.201c4.594-8.85 13.998-14.27 23.959-13.81l56.5 2.617a7.598 7.598 0 005.724-2.215 7.611 7.611 0 002.224-5.721l-2.532-56.506c-.446-9.962 4.989-19.357 13.845-23.938l50.238-25.984a7.602 7.602 0 002.916-10.847l-30.446-47.67c-5.367-8.402-5.36-19.257.02-27.653l30.517-47.623a7.61 7.61 0 00.945-6.065 7.588 7.588 0 00-3.844-4.786l-50.2-26.06c-8.845-4.587-14.27-13.997-13.81-23.959l2.617-56.501a7.598 7.598 0 00-3.377-6.677 7.605 7.605 0 00-4.56-1.27l-56.506 2.531c-9.961.446-19.356-4.988-23.938-13.845L328.505 7.843a7.604 7.604 0 00-10.848-2.915l-47.669 30.445c-8.402 5.367-19.257 5.36-27.654-.02L194.711 4.836a7.61 7.61 0 00-6.064-.944 7.607 7.607 0 00-4.786 3.842l-26.06 50.202c-4.594 8.849-13.998 14.27-23.959 13.808l-56.501-2.616a7.598 7.598 0 00-7.945 7.939zm63.746 9.872c15.864.734 30.843-7.898 38.16-21.994l22.221-42.807 40.61 26.021c13.37 8.568 30.66 8.58 44.044.033l40.648-25.963 22.158 42.84c7.295 14.108 22.261 22.763 38.127 22.051l48.183-2.16-2.23 48.182c-.666 14.378 6.361 28.025 18.176 35.904a40.72 40.72 0 003.818 2.256l42.808 22.222-26.022 40.609c-8.568 13.372-8.582 30.66-.032 44.044l25.96 40.649-42.84 22.157c-14.106 7.297-22.761 22.262-22.05 38.128l2.158 48.183-48.18-2.23c-15.864-.736-30.843 7.897-38.16 21.993l-22.223 42.808-40.609-26.022c-13.371-8.568-30.66-8.582-44.044-.032l-40.648 25.962-22.158-42.84c-7.296-14.107-22.261-22.763-38.127-22.052l-48.183 2.159 2.23-48.18c.735-15.864-7.897-30.843-21.993-38.16l-42.808-22.222 26.022-40.609c8.57-13.371 8.582-30.66.033-44.044L22.23 193.177l42.84-22.158c14.106-7.295 22.761-22.26 22.05-38.126L84.96 84.709l48.182 2.23z" />
    </clipPath>
  </defs>
  <g clip-path="url(#sunClipPath1)">
    <path
      d="M274.084 41.783l47.668-30.445 25.986 50.24a33.261 33.261 0 0031.031 17.947l56.506-2.531-2.616 56.502a33.261 33.261 0 0017.901 31.059l50.2 26.06-30.516 47.622a33.258 33.258 0 00-.026 35.85l30.446 47.667-50.24 25.986a33.261 33.261 0 00-17.947 31.032l2.531 56.504-56.502-2.616a33.261 33.261 0 00-31.059 17.901l-26.06 50.201-47.623-30.517a33.258 33.258 0 00-35.849-.025l-47.668 30.445-25.985-50.24a33.261 33.261 0 00-31.032-17.947l-56.505 2.531 2.617-56.502a33.261 33.261 0 00-17.901-31.059l-50.201-26.06 30.516-47.623a33.258 33.258 0 00.026-35.848l-30.446-47.669 50.24-25.985a33.261 33.261 0 0017.947-31.032l-2.532-56.504 56.502 2.616a33.261 33.261 0 0031.059-17.901l26.06-50.2 47.623 30.516a33.262 33.262 0 0035.849.025z"
      fill="#db0" stroke="none" />
    <path
      d="M79.524 133.232a33.26 33.26 0 01-17.947 31.031l-50.24 25.986 27.878 43.649a265.908 265.908 0 012.838-4.376c80.042-120.017 242.223-152.424 362.24-72.382 29.365 19.583 53.469 44.092 71.98 71.688l24.488-38.214-50.201-26.06a33.263 33.263 0 01-17.901-31.058l2.616-56.502-56.505 2.531a33.26 33.26 0 01-31.032-17.947l-25.985-50.24-47.668 30.446a33.266 33.266 0 01-35.85-.026l-47.622-30.516-26.06 50.2a33.262 33.262 0 01-31.06 17.901l-56.501-2.616 2.532 56.505z"
      opacity=".2" fill="#630" />
    <circle cx="256" cy="256" r="165" fill="#fd4" stroke="none" />
  </g>
  <g id="sunStep2">
    <path stroke-dasharray="1040" stroke-dashoffset="0" stroke="black" stroke-width="20" fill="none"
      clip-path="url(#sunClipPath2)" d="M256 91a165 165 0 0 1 0 330a165 165 0 0 1 0 -330z" />
  </g>
  <g id="sunStep3">
    <g clip-path="url(#sunClipPath3)">
      <path stroke-dasharray="1880" stroke-dashoffset="0" stroke="black" stroke-width="28" fill="none"
        d="M75.916 83.274l2.443 54.528c.43 9.612-4.814 18.68-13.36 23.099l-48.481 25.076a7.336 7.336 0 00-2.813 10.467l29.38 46c5.18 8.11 5.171 18.583-.02 26.686l-29.449 45.956a7.334 7.334 0 002.797 10.47l48.444 25.149c8.538 4.432 13.77 13.507 13.325 23.12l-2.523 54.523a7.338 7.338 0 007.66 7.67l54.526-2.444c9.612-.43 18.68 4.814 23.1 13.361l25.076 48.481a7.336 7.336 0 0010.467 2.814l46-29.38c8.109-5.18 18.583-5.172 26.686.02l45.956 29.447a7.344 7.344 0 005.853.912 7.342 7.342 0 004.618-3.709l25.148-48.444c4.434-8.54 13.508-13.77 23.12-13.326l54.523 2.525a7.332 7.332 0 005.524-2.138 7.345 7.345 0 002.146-5.52l-2.443-54.528c-.431-9.613 4.814-18.68 13.36-23.1l48.48-25.075a7.336 7.336 0 002.813-10.468l-29.38-46c-5.18-8.11-5.171-18.584.02-26.686l29.448-45.957a7.344 7.344 0 00.912-5.852 7.322 7.322 0 00-3.709-4.618l-48.444-25.148c-8.534-4.427-13.77-13.508-13.325-23.12l2.524-54.525a7.332 7.332 0 00-3.259-6.443 7.339 7.339 0 00-4.4-1.226l-54.528 2.443c-9.613.43-18.679-4.813-23.1-13.36l-25.075-48.481a7.338 7.338 0 00-10.468-2.813l-46 29.38c-8.109 5.178-18.584 5.171-26.686-.02l-45.957-29.448a7.344 7.344 0 00-5.852-.912 7.34 7.34 0 00-4.618 3.708l-25.148 48.445c-4.433 8.54-13.508 13.77-23.12 13.325l-54.524-2.525a7.332 7.332 0 00-7.667 7.661z" />
    </g>
  </g>
  <g id="sunStep4">
    <path stroke="#d36" stroke-width="16" fill="none" stroke-dasharray="395" stroke-dashoffset="0"
      d="M183.558 348.721c51.127 39.945 125.22 30.847 165.163-20.28a7.605 7.605 0 00-11.984-9.362c-34.782 44.518-99.296 52.44-143.816 17.658a7.605 7.605 0 00-9.363 11.984z" />

    <!-- <g transform="rotate(-146.3 256 256)">
      <path
        d="M256 138.335c-64.881 0-117.665 52.785-117.665 117.665a7.605 7.605 0 0015.208 0c0-56.495 45.961-102.457 102.457-102.457a7.605 7.605 0 000-15.208z" />
    </g> -->
  </g>

  <!-- <circle cx="256" cy="256" r="165" stroke="white" fill="none" /> -->
  <!-- <circle cx="256" cy="256" r="256" stroke="black" fill="none" /> -->

  <g id="sunStep5">
    <g transform="matrix(.75 0 0 .75 64 8)">
      <path
        d="M282.483 234.416a8.826 8.826 0 01-8.828-8.828v-5.319c0-9.737-7.923-17.655-17.655-17.655s-17.655 7.918-17.655 17.655v5.319c0 4.875-3.948 8.828-8.828 8.828s-8.828-3.953-8.828-8.828v-5.319c0-19.47 15.837-35.31 35.31-35.31s35.31 15.84 35.31 35.31v5.319a8.824 8.824 0 01-8.826 8.828zM8.828 193.787c-4.879 0-8.828 3.953-8.828 8.828s3.948 8.828 8.828 8.828h44.138v-17.655H8.828zM503.172 193.787h-44.138v17.655h44.138c4.879 0 8.828-3.953 8.828-8.828s-3.948-8.827-8.828-8.827z" />
      <!-- fill="#e1a546" -->
      <path
        d="M132.414 352.684a8.83 8.83 0 01-3.742-.832C79.319 328.761 26.483 272.516 26.483 225.588c0-36.543 29.492-66.272 65.75-66.272 14.733 0 28.724 4.853 40.181 13.806 11.457-8.952 25.449-13.806 40.181-13.806 36.258 0 65.75 29.728 65.75 66.272 0 46.926-52.836 103.172-102.189 126.263a8.82 8.82 0 01-3.742.833z" />
      <!-- fill="#ffdc64" -->
      <path
        d="M379.586 352.684a8.83 8.83 0 01-3.742-.832c-49.353-23.091-102.189-79.336-102.189-126.263 0-36.543 29.492-66.272 65.75-66.272 14.733 0 28.724 4.853 40.181 13.806 11.457-8.952 25.449-13.806 40.181-13.806 36.258 0 65.75 29.728 65.75 66.272 0 46.926-52.836 103.172-102.189 126.263a8.83 8.83 0 01-3.742.832z" />
      <!-- fill="#ffdc64" -->
      <g>
        <path
          d="M92.233 176.973c-26.517 0-48.095 21.81-48.095 48.616 0 38.483 45.759 87.043 88.276 108.452 42.517-21.409 88.276-69.97 88.276-108.452 0-26.806-21.578-48.617-48.095-48.617-12.802 0-24.845 5.026-33.922 14.159-3.31 3.328-9.207 3.328-12.518 0-9.077-9.132-21.12-14.158-33.922-14.158z"
          fill="#ff507d" />
        <path
          d="M339.405 176.973c-26.517 0-48.095 21.811-48.095 48.617 0 38.483 45.759 87.043 88.276 108.452 42.517-21.409 88.276-69.97 88.276-108.452 0-26.806-21.578-48.617-48.095-48.617-12.802 0-24.845 5.026-33.922 14.159-3.31 3.328-9.207 3.328-12.518 0-9.077-9.133-21.12-14.159-33.922-14.159z"
          fill="#ff507d" />
        <path
          d="M151.88 298.235a8.802 8.802 0 01-6.759-3.143c-3.147-3.729-2.664-9.298 1.06-12.436 15.586-13.126 28.681-28.918 35.043-42.25 2.087-4.388 7.319-6.268 11.767-4.168 4.396 2.099 6.268 7.371 4.163 11.772-7.491 15.715-21.922 33.267-39.595 48.147a8.787 8.787 0 01-5.679 2.078zm38.715-76.073a8.806 8.806 0 01-7.405-4.009c-2.397-3.677-6.354-5.87-10.595-5.87-4.879 0-8.828-3.953-8.828-8.828s3.948-8.828 8.828-8.828c10.232 0 19.724 5.19 25.388 13.888 2.664 4.082 1.508 9.551-2.578 12.215a8.75 8.75 0 01-4.81 1.432z"
          fill="#ff6991" />
        <path
          d="M399.052 298.235a8.802 8.802 0 01-6.759-3.143c-3.147-3.729-2.664-9.298 1.06-12.436 15.586-13.126 28.681-28.918 35.043-42.25 2.087-4.388 7.319-6.268 11.767-4.168 4.396 2.099 6.268 7.371 4.163 11.772-7.491 15.715-21.922 33.267-39.595 48.147a8.783 8.783 0 01-5.679 2.078zm38.716-76.073a8.806 8.806 0 01-7.405-4.009c-2.397-3.677-6.354-5.87-10.595-5.87-4.879 0-8.828-3.953-8.828-8.828s3.948-8.828 8.828-8.828c10.232 0 19.724 5.19 25.388 13.888 2.664 4.082 1.508 9.551-2.578 12.215a8.75 8.75 0 01-4.81 1.432z"
          fill="#ff6991" />
        <path
          d="M137.004 297.257c-27.223-23.852-48.728-54.955-48.728-81.336a48.2 48.2 0 013.514-18.074c1.537-3.814 1.108-8.126-1.007-11.651-3.454-5.757-10.633-8.097-16.831-5.515-17.474 7.278-29.814 24.648-29.814 44.908 0 38.483 45.759 87.043 88.276 108.452l.29-.147c14.143-7.149 16.221-26.192 4.3-36.637z"
          fill="#d23c69" />
        <path
          d="M384.177 297.257c-27.223-23.852-48.728-54.955-48.728-81.336a48.2 48.2 0 013.514-18.074c1.537-3.814 1.108-8.126-1.007-11.651-3.454-5.757-10.633-8.097-16.831-5.515-17.474 7.278-29.814 24.648-29.814 44.908 0 38.483 45.759 87.043 88.276 108.452l.29-.147c14.142-7.149 16.22-26.192 4.3-36.637z"
          fill="#d23c69" />
      </g>
    </g>
  </g>
</svg>
