<svg xmlns="http://www.w3.org/2000/svg" viewBox="0 0 512 512">
  <path
    d="M282.483 234.416a8.826 8.826 0 01-8.828-8.828v-5.319c0-9.737-7.923-17.655-17.655-17.655s-17.655 7.918-17.655 17.655v5.319c0 4.875-3.948 8.828-8.828 8.828s-8.828-3.953-8.828-8.828v-5.319c0-19.47 15.837-35.31 35.31-35.31s35.31 15.84 35.31 35.31v5.319a8.824 8.824 0 01-8.826 8.828zM8.828 193.787c-4.879 0-8.828 3.953-8.828 8.828s3.948 8.828 8.828 8.828h44.138v-17.655H8.828zM503.172 193.787h-44.138v17.655h44.138c4.879 0 8.828-3.953 8.828-8.828s-3.948-8.827-8.828-8.827z"
    fill="#e1a546" />
  <path
    d="M132.414 352.684a8.83 8.83 0 01-3.742-.832C79.319 328.761 26.483 272.516 26.483 225.588c0-36.543 29.492-66.272 65.75-66.272 14.733 0 28.724 4.853 40.181 13.806 11.457-8.952 25.449-13.806 40.181-13.806 36.258 0 65.75 29.728 65.75 66.272 0 46.926-52.836 103.172-102.189 126.263a8.82 8.82 0 01-3.742.833z"
    fill="#ffdc64" />
  <path
    d="M92.233 176.973c-26.517 0-48.095 21.81-48.095 48.616 0 38.483 45.759 87.043 88.276 108.452 42.517-21.409 88.276-69.97 88.276-108.452 0-26.806-21.578-48.617-48.095-48.617-12.802 0-24.845 5.026-33.922 14.159-3.31 3.328-9.207 3.328-12.518 0-9.077-9.132-21.12-14.158-33.922-14.158z"
    fill="#ff507d" />
  <path
    d="M151.88 298.235a8.802 8.802 0 01-6.759-3.143c-3.147-3.729-2.664-9.298 1.06-12.436 15.586-13.126 28.681-28.918 35.043-42.25 2.087-4.388 7.319-6.268 11.767-4.168 4.396 2.099 6.268 7.371 4.163 11.772-7.491 15.715-21.922 33.267-39.595 48.147a8.787 8.787 0 01-5.679 2.078zm38.715-76.073a8.806 8.806 0 01-7.405-4.009c-2.397-3.677-6.354-5.87-10.595-5.87-4.879 0-8.828-3.953-8.828-8.828s3.948-8.828 8.828-8.828c10.232 0 19.724 5.19 25.388 13.888 2.664 4.082 1.508 9.551-2.578 12.215a8.75 8.75 0 01-4.81 1.432z"
    fill="#ff6991" />
  <path
    d="M137.004 297.257c-27.223-23.852-48.728-54.955-48.728-81.336a48.2 48.2 0 013.514-18.074c1.537-3.814 1.108-8.126-1.007-11.651-3.454-5.757-10.633-8.097-16.831-5.515-17.474 7.278-29.814 24.648-29.814 44.908 0 38.483 45.759 87.043 88.276 108.452l.29-.147c14.143-7.149 16.221-26.192 4.3-36.637z"
    fill="#d23c69" />
  <path
    d="M379.586 352.684a8.83 8.83 0 01-3.742-.832c-49.353-23.091-102.189-79.336-102.189-126.263 0-36.543 29.492-66.272 65.75-66.272 14.733 0 28.724 4.853 40.181 13.806 11.457-8.952 25.449-13.806 40.181-13.806 36.258 0 65.75 29.728 65.75 66.272 0 46.926-52.836 103.172-102.189 126.263a8.83 8.83 0 01-3.742.832z"
    fill="#ffdc64" />
  <path
    d="M339.405 176.973c-26.517 0-48.095 21.811-48.095 48.617 0 38.483 45.759 87.043 88.276 108.452 42.517-21.409 88.276-69.97 88.276-108.452 0-26.806-21.578-48.617-48.095-48.617-12.802 0-24.845 5.026-33.922 14.159-3.31 3.328-9.207 3.328-12.518 0-9.077-9.133-21.12-14.159-33.922-14.159z"
    fill="#ff507d" />
  <path
    d="M399.052 298.235a8.802 8.802 0 01-6.759-3.143c-3.147-3.729-2.664-9.298 1.06-12.436 15.586-13.126 28.681-28.918 35.043-42.25 2.087-4.388 7.319-6.268 11.767-4.168 4.396 2.099 6.268 7.371 4.163 11.772-7.491 15.715-21.922 33.267-39.595 48.147a8.783 8.783 0 01-5.679 2.078zm38.716-76.073a8.806 8.806 0 01-7.405-4.009c-2.397-3.677-6.354-5.87-10.595-5.87-4.879 0-8.828-3.953-8.828-8.828s3.948-8.828 8.828-8.828c10.232 0 19.724 5.19 25.388 13.888 2.664 4.082 1.508 9.551-2.578 12.215a8.75 8.75 0 01-4.81 1.432z"
    fill="#ff6991" />
  <path
    d="M384.177 297.257c-27.223-23.852-48.728-54.955-48.728-81.336a48.2 48.2 0 013.514-18.074c1.537-3.814 1.108-8.126-1.007-11.651-3.454-5.757-10.633-8.097-16.831-5.515-17.474 7.278-29.814 24.648-29.814 44.908 0 38.483 45.759 87.043 88.276 108.452l.29-.147c14.142-7.149 16.22-26.192 4.3-36.637z"
    fill="#d23c69" />
</svg>
