<svg xmlns="http://www.w3.org/2000/svg" viewBox="0 0 512 512">
  <path
    d="M69.396 77.067l2.532 56.505c.446 9.961-4.989 19.357-13.845 23.937l-50.24 25.986a7.602 7.602 0 00-2.915 10.847l30.446 47.668c5.368 8.403 5.359 19.257-.02 27.653L4.836 317.286a7.6 7.6 0 002.897 10.85l50.202 26.061c8.847 4.594 14.27 13.998 13.808 23.958l-2.614 56.502a7.604 7.604 0 007.937 7.947l56.504-2.532c9.96-.446 19.357 4.989 23.937 13.846l25.986 50.24a7.602 7.602 0 0010.847 2.915l47.668-30.445c8.403-5.368 19.258-5.36 27.654.02l47.623 30.515a7.61 7.61 0 006.065.945 7.608 7.608 0 004.786-3.843l26.06-50.201c4.594-8.85 13.998-14.27 23.959-13.81l56.5 2.617a7.598 7.598 0 005.724-2.215 7.611 7.611 0 002.224-5.721l-2.532-56.506c-.446-9.962 4.989-19.357 13.845-23.938l50.238-25.984a7.602 7.602 0 002.916-10.847l-30.446-47.67c-5.367-8.402-5.36-19.257.02-27.653l30.517-47.623a7.61 7.61 0 00.945-6.065 7.588 7.588 0 00-3.844-4.786l-50.2-26.06c-8.845-4.587-14.27-13.997-13.81-23.959l2.617-56.501a7.598 7.598 0 00-3.377-6.677 7.605 7.605 0 00-4.56-1.27l-56.506 2.531c-9.961.446-19.356-4.988-23.938-13.845L328.505 7.843a7.604 7.604 0 00-10.848-2.915l-47.669 30.445c-8.402 5.367-19.257 5.36-27.654-.02L194.711 4.836a7.61 7.61 0 00-6.064-.944 7.607 7.607 0 00-4.786 3.842l-26.06 50.202c-4.594 8.849-13.998 14.27-23.959 13.808l-56.501-2.616a7.598 7.598 0 00-7.945 7.939zm63.746 9.872c15.864.734 30.843-7.898 38.16-21.994l22.221-42.807 40.61 26.021c13.37 8.568 30.66 8.58 44.044.033l40.648-25.963 22.158 42.84c7.295 14.108 22.261 22.763 38.127 22.051l48.183-2.16-2.23 48.182c-.666 14.378 6.361 28.025 18.176 35.904a40.72 40.72 0 003.818 2.256l42.808 22.222-26.022 40.609c-8.568 13.372-8.582 30.66-.032 44.044l25.96 40.649-42.84 22.157c-14.106 7.297-22.761 22.262-22.05 38.128l2.158 48.183-48.18-2.23c-15.864-.736-30.843 7.897-38.16 21.993l-22.223 42.808-40.609-26.022c-13.371-8.568-30.66-8.582-44.044-.032l-40.648 25.962-22.158-42.84c-7.296-14.107-22.261-22.763-38.127-22.052l-48.183 2.159 2.23-48.18c.735-15.864-7.897-30.843-21.993-38.16l-42.808-22.222 26.022-40.609c8.57-13.371 8.582-30.66.033-44.044L22.23 193.177l42.84-22.158c14.106-7.295 22.761-22.26 22.05-38.126L84.96 84.709l48.182 2.23z" />
</svg>
