<svg xmlns="http://www.w3.org/2000/svg" viewBox="-4 -4 192 192" width="96" opacity="0.8">
  <style>
    .contour1 {
      stroke: red;
      stroke-width: 5px;
      fill: none;
      stroke-dasharray: 888;
      stroke-dashoffset: -888;
      animation: animationContour1 15s linear infinite;
    }
    .contour2 {
      stroke: none;
      fill: #ff000080;
      stroke-dasharray: 888;
      /* stroke-dashoffset: -888; */
      /* animation: animationContour1 15s linear infinite; */
    }

    @keyframes animationContour1 {
      0% {
        stroke-dashoffset: -888;
      }

      30% {
        stroke-dashoffset: 0;
      }

      70% {
        stroke-dashoffset: 0;
      }

      100% {
        stroke-dashoffset: 888;
      }
    }

  </style>
  <defs>
    <radialGradient id="radialGradient1">
      <stop offset="0%" stop-color="#fb0" />
      <stop offset="100%" stop-color="#f00" />
    </radialGradient>
    <radialGradient id="radialGradient2" gradientTransform="translate(-0.25 0.45)">
      <stop offset="0%" stop-color="#ff0" />
      <stop offset="100%" stop-color="#fb0" />
    </radialGradient>
  </defs>
  <!-- <path fill="red" stroke="none"
    d="M146.33 178.826H18.976a6.994 6.994 0 01-6.482-4.442L4.26 153.111a6.965 6.965 0 01.679-6.335 6.965 6.965 0 015.554-3.121l55.929-2.005a2.49 2.49 0 01-.438-1.414v-5.386l-39.294-3.449a2.501 2.501 0 01-2.127-3.353L65.985 15.43V6.801c-2.571-.982-5.892-1.9-7.979-1.803.137.279.289.568.413.807.849 1.622 3.104 5.929-.887 8.02-4.27 2.235-14.366-2.47-18.508-4.597a2.5 2.5 0 012.284-4.449c5.257 2.697 11.171 4.75 13.35 4.699-.188-.438-.47-.977-.668-1.355-.88-1.681-1.877-3.586-1.054-5.52C53.261 1.84 54 .827 55.673.339 60.41-1.04 68.026 2.184 69.505 2.844a2.5 2.5 0 011.48 2.283v8.913c9.625 3.138 53.754 19.034 65.998 50.209 10.632 27.074 6.545 50.776 3.163 62.495-1.414 4.896-5.965 8.316-11.069 8.316H70.985v5.176c0 .46-.125.892-.342 1.263l98.754-3.541a5.383 5.383 0 015.011 2.914 5.392 5.392 0 01-.469 5.778l-22.047 29.396a6.988 6.988 0 01-5.562 2.78zm23.275-35.872l-.03.001-158.903 5.697a1.928 1.928 0 00-1.559.875 1.928 1.928 0 00-.19 1.778l8.233 21.273a1.938 1.938 0 001.819 1.247H146.33c.611 0 1.194-.292 1.562-.781l22.047-29.396a.4.4 0 00.038-.462.4.4 0 00-.372-.232zM74.153 130.06h54.923c2.889 0 5.465-1.934 6.265-4.703 3.207-11.109 7.079-33.583-3.013-59.28-10.027-25.534-44.691-40.618-58.657-45.782 5.566 10.906 16.951 35.528 18.234 56.714 1.582 26.096-11.055 44.978-17.752 53.051zm-43.769-3.354l35.601 3.125V29.914l-35.601 96.792zM70.985 26.173v99.782c6.311-7.973 17.337-25.418 15.929-48.643-1.092-18.026-10.193-39.318-15.929-51.139z" /> -->
  <path class="contour1" d="M146.33 178.826H18.976a6.994 6.994 0 01-6.482-4.442L4.26 153.111a6.965 6.965 0 01.679-6.335 6.965 6.965 0 015.554-3.121l55.929-2.005a2.49 2.49 0 01-.438-1.414v-5.386l-39.294-3.449a2.501 2.501 0 01-2.127-3.353L65.985 15.43V6.801c-2.571-.982-5.892-1.9-7.979-1.803.137.279.289.568.413.807.849 1.622 3.104 5.929-.887 8.02-4.27 2.235-14.366-2.47-18.508-4.597a2.5 2.5 0 012.284-4.449c5.257 2.697 11.171 4.75 13.35 4.699-.188-.438-.47-.977-.668-1.355-.88-1.681-1.877-3.586-1.054-5.52C53.261 1.84 54 .827 55.673.339 60.41-1.04 68.026 2.184 69.505 2.844a2.5 2.5 0 011.48 2.283v8.913c9.625 3.138 53.754 19.034 65.998 50.209 10.632 27.074 6.545 50.776 3.163 62.495-1.414 4.896-5.965 8.316-11.069 8.316H70.985v5.176c0 .46-.125.892-.342 1.263l98.754-3.541a5.383 5.383 0 015.011 2.914 5.392 5.392 0 01-.469 5.778l-22.047 29.396a6.988 6.988 0 01-5.562 2.78z" />
  <!--
    d="M146.33 178.826H18.976a6.994 6.994 0 01-6.482-4.442L4.26 153.111a6.965 6.965 0 01.679-6.335 6.965 6.965 0 015.554-3.121l55.929-2.005a2.49 2.49 0 01-.438-1.414v-5.386l-39.294-3.449a2.501 2.501 0 01-2.127-3.353L65.985 15.43V6.801c-2.571-.982-5.892-1.9-7.979-1.803.137.279.289.568.413.807.849 1.622 3.104 5.929-.887 8.02-4.27 2.235-14.366-2.47-18.508-4.597a2.5 2.5 0 012.284-4.449c5.257 2.697 11.171 4.75 13.35 4.699-.188-.438-.47-.977-.668-1.355-.88-1.681-1.877-3.586-1.054-5.52C53.261 1.84 54 .827 55.673.339 60.41-1.04 68.026 2.184 69.505 2.844a2.5 2.5 0 011.48 2.283v8.913c9.625 3.138 53.754 19.034 65.998 50.209 10.632 27.074 6.545 50.776 3.163 62.495-1.414 4.896-5.965 8.316-11.069 8.316H70.985v5.176c0 .46-.125.892-.342 1.263l98.754-3.541a5.383 5.383 0 015.011 2.914 5.392 5.392 0 01-.469 5.778l-22.047 29.396a6.988 6.988 0 01-5.562 2.78zm23.275-35.872l-.03.001-158.903 5.697a1.928 1.928 0 00-1.559.875 1.928 1.928 0 00-.19 1.778l8.233 21.273a1.938 1.938 0 001.819 1.247H146.33c.611 0 1.194-.292 1.562-.781l22.047-29.396a.4.4 0 00.038-.462.4.4 0 00-.372-.232zM74.153 130.06h54.923c2.889 0 5.465-1.934 6.265-4.703 3.207-11.109 7.079-33.583-3.013-59.28-10.027-25.534-44.691-40.618-58.657-45.782 5.566 10.906 16.951 35.528 18.234 56.714 1.582 26.096-11.055 44.978-17.752 53.051zm-43.769-3.354l35.601 3.125V29.914l-35.601 96.792zM70.985 26.173v99.782c6.311-7.973 17.337-25.418 15.929-48.643-1.092-18.026-10.193-39.318-15.929-51.139z"
  -->
  <path stroke="none" fill="url(#radialGradient1)" d="M74.153 130.06h54.923c2.889 0 5.465-1.934 6.265-4.703 3.207-11.109 7.079-33.583-3.013-59.28-10.027-25.534-44.691-40.618-58.657-45.782 5.566 10.906 16.951 35.528 18.234 56.714 1.582 26.096-11.055 44.978-17.752 53.051z
    m-43.769-3.354l35.601 3.125V29.914l-35.601 96.792z" />
  <path stroke="none" fill="url(#radialGradient2)" d="M70.985 125.955c6.311-7.973 17.337-25.418 15.929-48.643-1.092-18.026-10.193-39.318-15.929-51.139z" />
  <!-- <path stroke="darkred" fill="crimson" d="M170 143.5l-.03.001-158.903 5.697a1.928 1.928 0 00-1.559.875 1.928 1.928 0 00-.19 1.778l8.233 21.273a1.938 1.938 0 001.819 1.247h127c.611 0 1.194-.292 1.562-.781l22.047-29.396a.4.4 0 00.038-.462.4.4 0 00-.372-.232z" /> -->
</svg>
